<svg width="135" height="112" viewBox="0 0 135 112" fill="none" xmlns="http://www.w3.org/2000/svg">
<g clip-path="url(#clip0_1_179)">
<path fill-rule="evenodd" clip-rule="evenodd" d="M67.2144 0C30.1969 0 0.214355 25.06 0.214355 56C0.214355 80.78 19.3931 101.71 46.0256 109.13C49.3756 109.62 50.6319 107.94 50.6319 106.47C50.6319 105.14 50.5481 100.73 50.5481 96.04C33.7144 98.63 29.3594 92.61 28.0194 89.46C27.2656 87.85 23.9994 82.88 21.1519 81.55C18.8069 80.5 15.4569 77.91 21.0681 77.84C26.3444 77.77 30.1131 81.9 31.3694 83.58C37.3994 92.05 47.0306 89.67 50.8831 88.2C51.4694 84.56 53.2281 82.11 55.1544 80.71C40.2469 79.31 24.6694 74.48 24.6694 53.06C24.6694 46.97 27.2656 41.93 31.5369 38.01C30.8669 36.61 28.5219 30.87 32.2069 23.17C32.2069 23.17 37.8181 21.7 50.6319 28.91C55.9919 27.65 61.6869 27.02 67.3819 27.02C73.0769 27.02 78.7719 27.65 84.1319 28.91C96.9456 21.63 102.557 23.17 102.557 23.17C106.242 30.87 103.897 36.61 103.227 38.01C107.498 41.93 110.094 46.9 110.094 53.06C110.094 74.55 94.4331 79.31 79.5256 80.71C81.9544 82.46 84.0481 85.82 84.0481 91.07C84.0481 98.56 83.9644 104.58 83.9644 106.47C83.9644 107.94 85.2206 109.69 88.5706 109.13C101.871 105.377 113.429 98.2319 121.616 88.701C129.804 79.1702 134.21 67.7333 134.214 56C134.214 25.06 104.232 0 67.2144 0Z" fill="black"/>
</g>
<defs>
<clipPath id="clip0_1_179">
<rect width="134" height="112" fill="white" transform="translate(0.214355)"/>
</clipPath>
</defs>
</svg>
