<svg width="40" height="34" viewBox="0 0 40 34" fill="none" xmlns="http://www.w3.org/2000/svg">
<g clip-path="url(#clip0_1_139)">
<path fill-rule="evenodd" clip-rule="evenodd" d="M19.5432 0.595581C8.77741 0.595581 0.0576172 7.88377 0.0576172 16.882C0.0576172 24.0888 5.63536 30.1758 13.3809 32.3338C14.3552 32.4763 14.7205 31.9877 14.7205 31.5602C14.7205 31.1734 14.6962 29.8908 14.6962 28.5268C9.80041 29.2801 8.53384 27.5293 8.14413 26.6132C7.92492 26.145 6.975 24.6995 6.14686 24.3127C5.46486 24.0074 4.49059 23.2541 6.1225 23.2337C7.65699 23.2134 8.75306 24.4145 9.11841 24.9031C10.8721 27.3664 13.6732 26.6743 14.7936 26.2467C14.9641 25.1881 15.4756 24.4756 16.0358 24.0684C11.7002 23.6613 7.16985 22.2566 7.16985 16.027C7.16985 14.2558 7.92492 12.7901 9.16712 11.65C8.97227 11.2428 8.29027 9.57349 9.36198 7.3341C9.36198 7.3341 10.9939 6.90658 14.7205 9.00346C16.2794 8.63702 17.9356 8.45379 19.5919 8.45379C21.2482 8.45379 22.9045 8.63702 24.4633 9.00346C28.1899 6.88622 29.8218 7.3341 29.8218 7.3341C30.8935 9.57349 30.2115 11.2428 30.0167 11.65C31.2589 12.7901 32.014 14.2355 32.014 16.027C32.014 22.2769 27.4592 23.6613 23.1237 24.0684C23.83 24.5774 24.4389 25.5546 24.4389 27.0814C24.4389 29.2597 24.4146 31.0105 24.4146 31.5602C24.4146 31.9877 24.7799 32.4967 25.7542 32.3338C29.6224 31.2422 32.9837 29.1643 35.3649 26.3925C37.7462 23.6206 39.0276 20.2944 39.0288 16.882C39.0288 7.88377 30.309 0.595581 19.5432 0.595581Z" fill="black"/>
</g>
<defs>
<clipPath id="clip0_1_139">
<rect width="38.9712" height="32.5729" fill="white" transform="translate(0.0576172 0.595581)"/>
</clipPath>
</defs>
</svg>
