<svg width="69" height="58" viewBox="0 0 69 58" fill="none" xmlns="http://www.w3.org/2000/svg">
<g clip-path="url(#clip0_1_99)">
<path fill-rule="evenodd" clip-rule="evenodd" d="M34.4295 0.74823C15.8232 0.74823 0.75293 13.3443 0.75293 28.8958C0.75293 41.3511 10.3928 51.8712 23.7793 55.6008C25.4631 55.847 26.0945 55.0026 26.0945 54.2638C26.0945 53.5952 26.0524 51.3786 26.0524 49.0213C17.5912 50.3231 15.4022 47.2972 14.7287 45.7139C14.3498 44.9047 12.7081 42.4066 11.2768 41.7381C10.0982 41.2103 8.41434 39.9085 11.2347 39.8733C13.8868 39.8381 15.7811 41.914 16.4125 42.7584C19.4434 47.0158 24.2844 45.8195 26.2208 45.0806C26.5155 43.251 27.3995 42.0196 28.3677 41.3159C20.8747 40.6122 13.0449 38.1845 13.0449 27.418C13.0449 24.357 14.3498 21.8237 16.4967 19.8534C16.1599 19.1497 14.9813 16.2646 16.8335 12.3943C16.8335 12.3943 19.6539 11.6554 26.0945 15.2794C28.7886 14.6461 31.6511 14.3294 34.5136 14.3294C37.3762 14.3294 40.2387 14.6461 42.9328 15.2794C49.3734 11.6202 52.1938 12.3943 52.1938 12.3943C54.046 16.2646 52.8674 19.1497 52.5306 19.8534C54.6775 21.8237 55.9824 24.3218 55.9824 27.418C55.9824 38.2196 48.1105 40.6122 40.6175 41.3159C41.8383 42.1955 42.8907 43.8843 42.8907 46.5232C42.8907 50.2879 42.8486 53.3138 42.8486 54.2638C42.8486 55.0026 43.48 55.8822 45.1638 55.6008C51.8491 53.7142 57.6583 50.123 61.7739 45.3325C65.8894 40.5419 68.104 34.7934 68.106 28.8958C68.106 13.3443 53.0357 0.74823 34.4295 0.74823Z" fill="black"/>
</g>
<defs>
<clipPath id="clip0_1_99">
<rect width="67.3531" height="56.2951" fill="white" transform="translate(0.75293 0.74823)"/>
</clipPath>
</defs>
</svg>
