<svg width="21" height="21" viewBox="0 0 21 21" fill="none" xmlns="http://www.w3.org/2000/svg">
<path fill-rule="evenodd" clip-rule="evenodd" d="M8.05633 7.74622C8.30514 7.49741 8.30514 7.09402 8.05633 6.84521C7.80752 6.5964 7.40413 6.5964 7.15532 6.84521L3.75741 10.2431C3.5086 10.4919 3.5086 10.8953 3.75741 11.1441L7.15532 14.5421C7.40413 14.7909 7.80752 14.7909 8.05633 14.5421C8.30514 14.2932 8.30514 13.8898 8.05633 13.641L5.74605 11.3308H12.108C12.3192 11.3308 12.4903 11.0455 12.4903 10.6937C12.4903 10.3418 12.3192 10.0565 12.108 10.0565H5.74601L8.05633 7.74622ZM15.3596 4.49244H7.95968C7.64691 4.49244 7.39336 4.2072 7.39336 3.85533C7.39336 3.50347 7.64691 3.21822 7.95968 3.21822H15.3596C16.5784 3.21822 17.5871 4.24985 17.5871 5.55429V15.748C17.5871 17.0525 16.5784 18.0841 15.3596 18.0841H7.95968C7.64691 18.0841 7.39336 17.7989 7.39336 17.447C7.39336 17.0951 7.64691 16.8099 7.95968 16.8099H15.3596C15.9757 16.8099 16.4545 16.3202 16.4545 15.748V5.55429C16.4545 4.98211 15.9757 4.49244 15.3596 4.49244Z" fill="#131313"/>
</svg>
