<svg width="26" height="26" viewBox="0 0 26 26" fill="none" xmlns="http://www.w3.org/2000/svg">
<g clip-path="url(#clip0_1_52)">
<path d="M13.3551 1.17017C6.78687 1.17017 1.4624 6.49463 1.4624 13.0629C1.4624 19.6311 6.78687 24.9556 13.3551 24.9556C19.9234 24.9556 25.2478 19.6311 25.2478 13.0629C25.2478 6.49463 19.9234 1.17017 13.3551 1.17017ZM10.4439 17.9922H8.0356V10.2421H10.4439V17.9922ZM9.22487 9.29065C8.46423 9.29065 7.97242 8.75177 7.97242 8.08528C7.97242 7.40516 8.4791 6.88238 9.25584 6.88238C10.0326 6.88238 10.5083 7.40516 10.5232 8.08528C10.5232 8.75177 10.0326 9.29065 9.22487 9.29065ZM19.2395 17.9922H16.8312V13.6972C16.8312 12.6974 16.4819 12.0185 15.611 12.0185C14.9458 12.0185 14.5506 12.4781 14.3759 12.9204C14.3115 13.0777 14.2954 13.3007 14.2954 13.5225V17.9909H11.8859V12.7135C11.8859 11.746 11.8549 10.9371 11.8227 10.2408H13.9151L14.0253 11.3174H14.0736C14.3908 10.8119 15.1675 10.0662 16.467 10.0662C18.0515 10.0662 19.2395 11.1278 19.2395 13.4097V17.9922Z" fill="#666666"/>
</g>
<defs>
<clipPath id="clip0_1_52">
<rect width="24.7765" height="24.7765" fill="white" transform="translate(0.966797 0.674683)"/>
</clipPath>
</defs>
</svg>
