<svg width="20" height="21" viewBox="0 0 20 21" fill="none" xmlns="http://www.w3.org/2000/svg">
<path d="M11.4884 9.08961C10.6542 8.25577 9.52305 7.78735 8.34358 7.78735C7.1641 7.78735 6.03291 8.25577 5.19872 9.08961L2.05285 12.2345C1.21865 13.0687 0.75 14.2001 0.75 15.3798C0.75 16.5596 1.21865 17.691 2.05285 18.5252C2.88705 19.3594 4.01847 19.828 5.19821 19.828C6.37795 19.828 7.50937 19.3594 8.34358 18.5252L9.916 16.9528" stroke="black" stroke-width="1.40531" stroke-linecap="round" stroke-linejoin="round"/>
<path d="M8.34375 12.2345C9.17794 13.0684 10.3091 13.5368 11.4886 13.5368C12.6681 13.5368 13.7993 13.0684 14.6335 12.2345L17.7793 9.08967C18.6135 8.25547 19.0822 7.12405 19.0822 5.94431C19.0822 4.76457 18.6135 3.63315 17.7793 2.79895C16.9451 1.96474 15.8137 1.49609 14.634 1.49609C13.4542 1.49609 12.3228 1.96474 11.4886 2.79895L9.91618 4.37137" stroke="black" stroke-width="1.40531" stroke-linecap="round" stroke-linejoin="round"/>
</svg>
