<svg width="20" height="21" viewBox="0 0 20 21" fill="none" xmlns="http://www.w3.org/2000/svg">
<path d="M11.4884 8.87111C10.6542 8.03727 9.52305 7.56885 8.34358 7.56885C7.1641 7.56885 6.03291 8.03727 5.19872 8.87111L2.05285 12.016C1.21865 12.8502 0.75 13.9816 0.75 15.1613C0.75 16.3411 1.21865 17.4725 2.05285 18.3067C2.88705 19.1409 4.01847 19.6095 5.19821 19.6095C6.37795 19.6095 7.50937 19.1409 8.34358 18.3067L9.916 16.7343" stroke="black" stroke-width="1.40531" stroke-linecap="round" stroke-linejoin="round"/>
<path d="M8.34375 12.0159C9.17794 12.8497 10.3091 13.3182 11.4886 13.3182C12.6681 13.3182 13.7993 12.8497 14.6335 12.0159L17.7793 8.87104C18.6135 8.03684 19.0822 6.90542 19.0822 5.72568C19.0822 4.54594 18.6135 3.41452 17.7793 2.58032C16.9451 1.74612 15.8137 1.27747 14.634 1.27747C13.4542 1.27747 12.3228 1.74612 11.4886 2.58032L9.91618 4.15274" stroke="black" stroke-width="1.40531" stroke-linecap="round" stroke-linejoin="round"/>
</svg>
