<svg width="21" height="21" viewBox="0 0 21 21" fill="none" xmlns="http://www.w3.org/2000/svg">
<path d="M11.7384 8.81447C10.9042 7.98063 9.77305 7.51221 8.59358 7.51221C7.4141 7.51221 6.28291 7.98063 5.44872 8.81447L2.30285 11.9593C1.46865 12.7935 1 13.9249 1 15.1047C1 16.2844 1.46865 17.4158 2.30285 18.25C3.13705 19.0842 4.26847 19.5529 5.44821 19.5529C6.62795 19.5529 7.75937 19.0842 8.59358 18.25L10.166 16.6776" stroke="black" stroke-width="1.40531" stroke-linecap="round" stroke-linejoin="round"/>
<path d="M8.59375 11.9594C9.42794 12.7932 10.5591 13.2616 11.7386 13.2616C12.9181 13.2616 14.0493 12.7932 14.8835 11.9594L18.0293 8.81452C18.8635 7.98032 19.3322 6.8489 19.3322 5.66916C19.3322 4.48942 18.8635 3.358 18.0293 2.5238C17.1951 1.6896 16.0637 1.22095 14.884 1.22095C13.7042 1.22095 12.5728 1.6896 11.7386 2.5238L10.1662 4.09623" stroke="black" stroke-width="1.40531" stroke-linecap="round" stroke-linejoin="round"/>
</svg>
