<svg width="21" height="21" viewBox="0 0 21 21" fill="none" xmlns="http://www.w3.org/2000/svg">
<path d="M12.2384 8.70216C11.4042 7.86832 10.273 7.3999 9.09358 7.3999C7.9141 7.3999 6.78291 7.86832 5.94872 8.70216L2.80285 11.847C1.96865 12.6812 1.5 13.8126 1.5 14.9924C1.5 16.1721 1.96865 17.3035 2.80285 18.1377C3.63705 18.9719 4.76847 19.4406 5.94821 19.4406C7.12795 19.4406 8.25937 18.9719 9.09358 18.1377L10.666 16.5653" stroke="black" stroke-width="1.40531" stroke-linecap="round" stroke-linejoin="round"/>
<path d="M9.09375 11.8471C9.92794 12.6809 11.0591 13.1493 12.2386 13.1493C13.4181 13.1493 14.5493 12.6809 15.3835 11.8471L18.5293 8.70222C19.3635 7.86802 19.8322 6.7366 19.8322 5.55686C19.8322 4.37712 19.3635 3.2457 18.5293 2.41149C17.6951 1.57729 16.5637 1.10864 15.384 1.10864C14.2042 1.10864 13.0728 1.57729 12.2386 2.41149L10.6662 3.98392" stroke="black" stroke-width="1.40531" stroke-linecap="round" stroke-linejoin="round"/>
</svg>
