<svg width="21" height="21" viewBox="0 0 21 21" fill="none" xmlns="http://www.w3.org/2000/svg">
<path d="M12.2384 9.08961C11.4042 8.25577 10.273 7.78735 9.09358 7.78735C7.9141 7.78735 6.78291 8.25577 5.94872 9.08961L2.80285 12.2345C1.96865 13.0687 1.5 14.2001 1.5 15.3798C1.5 16.5596 1.96865 17.691 2.80285 18.5252C3.63705 19.3594 4.76847 19.828 5.94821 19.828C7.12795 19.828 8.25937 19.3594 9.09358 18.5252L10.666 16.9528" stroke="black" stroke-width="1.40531" stroke-linecap="round" stroke-linejoin="round"/>
<path d="M9.09375 12.2345C9.92794 13.0684 11.0591 13.5368 12.2386 13.5368C13.4181 13.5368 14.5493 13.0684 15.3835 12.2345L18.5293 9.08967C19.3635 8.25547 19.8322 7.12405 19.8322 5.94431C19.8322 4.76457 19.3635 3.63315 18.5293 2.79895C17.6951 1.96474 16.5637 1.49609 15.384 1.49609C14.2042 1.49609 13.0728 1.96474 12.2386 2.79895L10.6662 4.37137" stroke="black" stroke-width="1.40531" stroke-linecap="round" stroke-linejoin="round"/>
</svg>
