<svg width="43" height="31" viewBox="0 0 43 31" fill="none" xmlns="http://www.w3.org/2000/svg">
<g clip-path="url(#clip0_1_122)">
<path d="M34.9511 10.0773C34.5085 9.95333 34.0622 9.83846 33.6125 9.73282C33.6881 9.48077 33.7576 9.23177 33.8193 8.98714C34.8326 4.97009 34.1702 1.73388 31.9075 0.668358C29.7381 -0.353116 26.1902 0.712003 22.6071 3.25866C22.254 3.51009 21.9087 3.76877 21.5715 4.03445C21.3458 3.85778 21.1161 3.68454 20.8826 3.51482C17.1273 0.791864 13.3632 -0.35577 11.1029 0.712799C8.93548 1.73746 8.29367 4.77973 9.20594 8.58678C9.2967 8.96383 9.39918 9.33893 9.51328 9.71173C8.98047 9.83536 8.46634 9.96696 7.97431 10.107C3.57148 11.3607 0.759766 13.3252 0.759766 15.363C0.759766 17.4676 3.77826 19.5786 8.364 20.8587C8.73578 20.962 9.11065 21.0578 9.48827 21.1459C9.36563 21.5474 9.25675 21.9516 9.16176 22.3581C8.29204 26.0991 8.97121 29.0695 11.1328 30.0876C13.3654 31.1391 17.1126 30.0584 20.7613 27.4537C21.0571 27.2419 21.3465 27.0242 21.629 26.8006C21.9941 27.0883 22.369 27.3676 22.7531 27.6382C26.2875 30.1219 29.7781 31.1248 31.9376 30.1038C34.1681 29.0493 34.8931 25.8583 33.9519 21.9761C33.8777 21.6719 33.7946 21.3693 33.7025 21.0684C33.9657 21.0047 34.224 20.9392 34.4758 20.871C39.2431 19.5812 42.3449 17.4958 42.3449 15.363C42.3449 13.3178 39.4424 11.34 34.9511 10.0773V10.0773ZM33.9171 19.494C33.6897 19.5554 33.4564 19.6147 33.2186 19.6724C32.6923 18.3117 31.9821 16.865 31.1129 15.37C31.9423 13.9108 32.6252 12.4824 33.1367 11.1306C33.5622 11.2312 33.9749 11.3372 34.3729 11.449C38.2212 12.531 40.5685 14.1305 40.5685 15.363C40.5685 16.6758 38.0334 18.3801 33.9171 19.494V19.494ZM32.2092 22.2578C32.6254 23.9744 32.6847 25.5265 32.409 26.74C32.1614 27.8303 31.6634 28.5571 31.0474 28.8483C29.737 29.4678 26.9344 28.6626 23.9118 26.5385C23.5545 26.2869 23.2058 26.0272 22.8662 25.7598C24.038 24.7132 25.2091 23.4966 26.352 22.1453C28.3624 21.9997 30.2617 21.7614 31.9841 21.4363C32.067 21.7086 32.1421 21.9826 32.2092 22.2578V22.2578ZM14.9371 28.7413C13.6567 29.1105 12.6369 29.1211 12.0204 28.8308C10.7087 28.213 10.1634 25.8279 10.9072 22.6287C10.9956 22.2507 11.0969 21.8747 11.2108 21.5013C12.9142 21.809 14.7996 22.0303 16.8147 22.1638C17.9655 23.486 19.1703 24.7013 20.3846 25.7655C20.1265 25.9694 19.8623 26.1681 19.5923 26.3614C17.9788 27.5131 16.362 28.3303 14.9371 28.7413V28.7413ZM8.93872 19.4859C6.91096 18.9199 5.23634 18.1843 4.08853 17.3815C3.05702 16.6603 2.53639 15.944 2.53639 15.363C2.53639 14.1264 4.79385 12.549 8.5591 11.477C9.01605 11.347 9.49428 11.2243 9.99054 11.1092C10.511 12.4915 11.1936 13.9368 12.0173 15.3983C11.1829 16.8814 10.4905 18.3498 9.96503 19.7484C9.62035 19.6678 9.27814 19.5803 8.93872 19.4859V19.4859ZM10.9494 8.30806C10.1679 5.04637 10.6869 2.58594 11.9931 1.96842C13.3843 1.31069 16.4606 2.24846 19.7031 4.59971C19.9145 4.75338 20.1226 4.91016 20.3271 5.06999C19.1188 6.12953 17.925 7.3358 16.7845 8.65019C14.8287 8.79824 12.9566 9.03596 11.2353 9.35447C11.1293 9.00773 11.034 8.65886 10.9494 8.30819V8.30806ZM28.8874 11.9254C28.4809 11.3519 28.0592 10.7856 27.6228 10.227C28.9496 10.364 30.2209 10.5459 31.4147 10.7682C31.0563 11.7064 30.6096 12.6871 30.0838 13.6927C29.6995 13.0972 29.3006 12.5079 28.8874 11.9254V11.9254ZM21.5723 6.10685C22.3917 6.83183 23.2123 7.64118 24.0195 8.51939C22.3821 8.45623 20.742 8.45597 19.1045 8.51859C19.9125 7.64848 20.7401 6.84019 21.5723 6.10685ZM14.2103 11.9354C13.8023 12.5132 13.4109 13.0987 13.0363 13.6915C12.5191 12.6895 12.0765 11.7043 11.715 10.7528C12.9015 10.5361 14.1668 10.3588 15.4851 10.2243C15.0439 10.7864 14.6188 11.3569 14.2103 11.9352V11.9354ZM15.523 20.6049C14.1609 20.4807 12.8766 20.3126 11.6905 20.1017C12.0576 19.1333 12.51 18.1271 13.0384 17.1036C13.4145 17.6968 13.8075 18.2827 14.2173 18.8608C14.6387 19.4551 15.075 20.0372 15.523 20.6049ZM21.6214 24.7213C20.7793 23.9795 19.9395 23.1587 19.1193 22.276C19.9156 22.3015 20.7273 22.3145 21.5524 22.3145C22.4 22.3145 23.2379 22.2989 24.0626 22.269C23.2528 23.1676 22.4352 23.9896 21.6214 24.7213ZM30.1005 17.0514C30.6564 18.0861 31.1249 19.087 31.4969 20.0388C30.2912 20.2636 28.9894 20.4445 27.6178 20.5789C28.0573 20.0099 28.4829 19.4337 28.8944 18.8509C29.3128 18.2584 29.7149 17.6584 30.1005 17.0514V17.0514ZM27.3556 18.126C26.7257 19.0197 26.0603 19.8963 25.3606 20.7547C24.0932 20.828 22.823 20.8644 21.5524 20.8638C20.2582 20.8638 18.9994 20.8309 17.7873 20.7667C17.0693 19.9104 16.3913 19.0322 15.7546 18.134H15.7548C15.1211 17.2405 14.5293 16.3278 13.9804 15.3976C14.5279 14.4673 15.1179 13.5541 15.7494 12.6599L15.7493 12.6601C16.3805 11.7657 17.0531 10.8913 17.7657 10.0386C19.0023 9.96219 20.2705 9.92239 21.5522 9.92239H21.5524C22.8399 9.92239 24.1097 9.96258 25.346 10.0395C26.0514 10.8909 26.7197 11.7624 27.3497 12.6522C27.9833 13.5444 28.5812 14.4532 29.1425 15.3771C28.587 16.3104 27.991 17.2273 27.3556 18.126V18.126ZM31.0203 1.92517C32.4127 2.58104 32.9543 5.22586 32.0794 8.69423C32.0235 8.91551 31.9608 9.14089 31.8926 9.36946C30.1671 9.04419 28.2937 8.80235 26.3322 8.65205C25.1896 7.3232 24.0056 6.11507 22.817 5.06919C23.1285 4.82397 23.4474 4.58511 23.7734 4.35283C26.8436 2.17099 29.713 1.3095 31.0203 1.92517V1.92517ZM21.5524 12.3304C23.6032 12.3304 25.2658 13.6882 25.2658 15.363C25.2658 17.0378 23.6032 18.3956 21.5524 18.3956C19.5015 18.3956 17.8389 17.0378 17.8389 15.363C17.8389 13.6882 19.5015 12.3304 21.5524 12.3304V12.3304Z" fill="#00D8FF"/>
</g>
<defs>
<clipPath id="clip0_1_122">
<rect width="41.5886" height="30.2463" fill="white" transform="translate(0.758789 0.283936)"/>
</clipPath>
</defs>
</svg>
