<svg width="141" height="120" viewBox="0 0 141 120" fill="none" xmlns="http://www.w3.org/2000/svg">
<g clip-path="url(#clip0_1_164)">
<path d="M0.5 104.27C0.5 112.745 8.58227 119.614 18.5518 119.614H122.448C132.419 119.614 140.5 112.744 140.5 104.27V15.9589C140.5 7.48338 132.418 0.61438 122.448 0.61438H18.5523C8.58117 0.61438 0.5 7.48431 0.5 15.9584V104.27V104.27Z" fill="#563D7C"/>
<path d="M58.5552 53.2524V36.4004H76.0065C77.669 36.4004 79.2713 36.518 80.8146 36.7537C82.3579 36.9889 83.7234 37.4091 84.9107 38.0148C86.0974 38.6205 87.0473 39.4614 87.7599 40.5375C88.4719 41.6141 88.8285 42.9933 88.8285 44.6746C88.8285 47.7021 87.7599 49.8887 85.6227 51.234C83.4861 52.5797 80.7555 53.2524 77.4311 53.2524H58.5552V53.2524ZM39.916 24.089V96.1398H80.9929C84.792 96.1398 88.4922 95.7363 92.0933 94.9289C95.6945 94.1214 98.8997 92.877 101.71 91.1952C104.519 89.5134 106.755 87.3435 108.417 84.6865C110.08 82.029 110.91 78.8838 110.91 75.2511C110.91 70.7435 109.624 66.8923 107.052 63.6969C104.48 60.5011 100.581 58.2643 95.3576 56.986C99.1568 55.439 102.026 53.4541 103.965 51.0323C105.904 48.6104 106.874 45.5834 106.874 41.9501C106.874 38.5865 106.221 35.7612 104.915 33.4737C103.609 31.1867 101.769 29.3533 99.3941 27.9742C97.0201 26.595 94.1709 25.6025 90.8465 24.9973C87.5226 24.3916 83.8421 24.089 79.8056 24.089H39.916V24.089ZM58.5552 83.8284V64.0497H78.8557C82.8922 64.0497 86.1373 64.84 88.5912 66.4214C91.0444 68.0023 92.2716 70.6426 92.2716 74.3428C92.2716 76.2268 91.8954 77.7738 91.1434 78.9847C90.3915 80.1956 89.3825 81.1546 88.1159 81.8607C86.8499 82.5673 85.3854 83.0716 83.7234 83.3747C82.0609 83.6768 80.3202 83.8284 78.4997 83.8284H58.5552V83.8284Z" fill="white"/>
</g>
<defs>
<clipPath id="clip0_1_164">
<rect width="140" height="119" fill="white" transform="translate(0.5 0.61438)"/>
</clipPath>
</defs>
</svg>
