<svg width="71" height="61" viewBox="0 0 71 61" fill="none" xmlns="http://www.w3.org/2000/svg">
<g clip-path="url(#clip0_1_84)">
<path d="M0.0151367 53.018C0.0151367 57.2778 4.07756 60.7304 9.0886 60.7304H61.3103C66.3221 60.7304 70.384 57.2773 70.384 53.018V8.62954C70.384 4.36947 66.3216 0.91687 61.3105 0.91687H9.08887C4.07701 0.91687 0.0151367 4.36993 0.0151367 8.62931V53.0177V53.018Z" fill="#563D7C"/>
<path d="M29.1958 27.3745V18.9041H37.9675C38.8031 18.9041 39.6085 18.9632 40.3842 19.0817C41.1599 19.1999 41.8463 19.4111 42.443 19.7156C43.0395 20.02 43.517 20.4427 43.8752 20.9836C44.233 21.5247 44.4123 22.2179 44.4123 23.063C44.4123 24.5848 43.8751 25.6839 42.8009 26.36C41.727 27.0364 40.3545 27.3745 38.6835 27.3745H29.1958V27.3745ZM19.8271 12.716V48.9312H40.4738C42.3834 48.9312 44.2432 48.7284 46.0533 48.3226C47.8634 47.9167 49.4744 47.2913 50.8867 46.4459C52.2988 45.6006 53.4228 44.5099 54.2581 43.1744C55.0938 41.8386 55.5113 40.2578 55.5113 38.4318C55.5113 36.1662 54.8648 34.2304 53.572 32.6243C52.279 31.018 50.3197 29.8937 47.694 29.2512C49.6036 28.4736 51.0459 27.4759 52.0206 26.2586C52.9951 25.0413 53.4824 23.5198 53.4824 21.6936C53.4824 20.003 53.1542 18.5829 52.4978 17.4331C51.8414 16.2836 50.9164 15.3621 49.7229 14.6688C48.5297 13.9756 47.0975 13.4768 45.4266 13.1725C43.7559 12.8681 41.9059 12.716 39.877 12.716H19.8271V12.716ZM29.1958 42.7431V32.8017H39.3996C41.4285 32.8017 43.0596 33.1989 44.293 33.9937C45.5261 34.7884 46.1429 36.1155 46.1429 37.9753C46.1429 38.9223 45.9538 39.6998 45.5758 40.3085C45.1979 40.9171 44.6907 41.3992 44.0541 41.7541C43.4178 42.1092 42.6816 42.3627 41.8463 42.5151C41.0106 42.6669 40.1357 42.7431 39.2206 42.7431H29.1958V42.7431Z" fill="white"/>
</g>
<defs>
<clipPath id="clip0_1_84">
<rect width="70.3689" height="59.8135" fill="white" transform="translate(0.0151367 0.91687)"/>
</clipPath>
</defs>
</svg>
