<svg width="73" height="53" viewBox="0 0 73 53" fill="none" xmlns="http://www.w3.org/2000/svg">
<g clip-path="url(#clip0_1_82)">
<path d="M59.5145 17.6124C58.7496 17.3981 57.9783 17.1996 57.2011 17.017C57.3317 16.5814 57.4519 16.1511 57.5585 15.7283C59.3098 8.7857 58.1649 3.19261 54.2544 1.3511C50.5051 -0.414297 44.3733 1.42653 38.1806 5.82786C37.5703 6.26241 36.9736 6.70948 36.3909 7.16864C36.0008 6.86331 35.6039 6.56391 35.2003 6.27059C28.71 1.56455 22.2046 -0.418883 18.2983 1.4279C14.5523 3.1988 13.4431 8.45669 15.0197 15.0363C15.1766 15.688 15.3537 16.3363 15.5509 16.9806C14.63 17.1942 13.7415 17.4217 12.8911 17.6638C5.28178 19.8304 0.422363 23.2257 0.422363 26.7476C0.422363 30.385 5.63917 34.0334 13.5646 36.2456C14.2071 36.4242 14.855 36.5897 15.5077 36.742C15.2957 37.4359 15.1075 38.1345 14.9434 38.8371C13.4402 45.3025 14.614 50.4362 18.3499 52.1958C22.2085 54.013 28.6847 52.1454 34.9905 47.6436C35.5019 47.2776 36.0019 46.9013 36.4903 46.5149C37.1213 47.0121 37.7691 47.4948 38.433 47.9625C44.5415 52.255 50.5742 53.9883 54.3064 52.2238C58.1613 50.4013 59.4143 44.8864 57.7876 38.1768C57.6595 37.6511 57.5158 37.1281 57.3567 36.6081C57.8115 36.498 58.2579 36.3848 58.693 36.2669C66.9323 34.0377 72.2932 30.4336 72.2932 26.7476C72.2932 23.2129 67.2768 19.7946 59.5145 17.6124V17.6124ZM57.7275 33.8871C57.3345 33.9932 56.9313 34.0957 56.5203 34.1955C55.6107 31.8438 54.3833 29.3434 52.881 26.7597C54.3145 24.2377 55.4948 21.7691 56.3788 19.4329C57.1141 19.6066 57.8275 19.7898 58.5153 19.9831C65.1662 21.8531 69.2229 24.6174 69.2229 26.7476C69.2229 29.0164 64.8416 31.9619 57.7275 33.8871V33.8871ZM54.7758 38.6637C55.4951 41.6305 55.5975 44.313 55.1211 46.4101C54.6932 48.2945 53.8325 49.5507 52.7679 50.054C50.5031 51.1247 45.6594 49.733 40.4356 46.0619C39.8181 45.627 39.2154 45.1783 38.6284 44.7161C40.6537 42.9073 42.6776 40.8047 44.653 38.4693C48.1275 38.2176 51.4099 37.8058 54.3867 37.2439C54.5301 37.7146 54.6598 38.188 54.7758 38.6637V38.6637ZM24.9247 49.8689C22.7119 50.507 20.9493 50.5253 19.8839 50.0237C17.6169 48.956 16.6744 44.8339 17.96 39.3048C18.1128 38.6514 18.2877 38.0016 18.4847 37.3562C21.4286 37.8881 24.6872 38.2705 28.1698 38.5012C30.1586 40.7863 32.2409 42.8867 34.3395 44.7259C33.8935 45.0783 33.437 45.4217 32.9703 45.7558C30.1817 47.7463 27.3874 49.1587 24.9247 49.8689V49.8689ZM14.5579 33.8731C11.0533 32.8948 8.15914 31.6235 6.1754 30.2362C4.39266 28.9896 3.49288 27.7518 3.49288 26.7476C3.49288 24.6103 7.39439 21.8842 13.9018 20.0315C14.6915 19.8068 15.518 19.5947 16.3757 19.3957C17.2752 21.7847 18.4549 24.2826 19.8786 26.8085C18.4364 29.3718 17.2399 31.9096 16.3316 34.3268C15.7359 34.1875 15.1445 34.0362 14.5579 33.8731V33.8731ZM18.033 14.5546C16.6823 8.91753 17.5793 4.66522 19.8367 3.59796C22.2411 2.46123 27.5578 4.08195 33.1618 8.14557C33.5272 8.41116 33.8867 8.68212 34.2401 8.95834C32.1519 10.7895 30.0887 12.8743 28.1176 15.1459C24.7374 15.4018 21.5018 15.8127 18.5271 16.3631C18.3438 15.7639 18.179 15.1609 18.033 14.5549V14.5546ZM49.0348 20.8064C48.3322 19.8153 47.6035 18.8366 46.8492 17.8711C49.1423 18.1079 51.3395 18.4222 53.4027 18.8065C52.7833 20.4279 52.0113 22.1229 51.1025 23.8608C50.4383 22.8315 49.7489 21.8132 49.0348 20.8064V20.8064ZM36.3923 10.7503C37.8084 12.0033 39.2267 13.4021 40.6217 14.9199C37.7918 14.8107 34.9572 14.8103 32.1272 14.9185C33.5236 13.4147 34.954 12.0177 36.3923 10.7503ZM23.6686 20.8236C22.9635 21.8223 22.287 22.8343 21.6397 23.8587C20.7458 22.127 19.9808 20.4242 19.3561 18.7799C21.4067 18.4053 23.5934 18.099 25.8719 17.8665C25.1093 18.8379 24.3746 19.8238 23.6686 20.8234V20.8236ZM25.9373 35.807C23.5833 35.5924 21.3637 35.3019 19.3137 34.9374C19.9482 33.2637 20.7301 31.5247 21.6433 29.7558C22.2932 30.781 22.9725 31.7936 23.6807 32.7928C24.409 33.8199 25.163 34.826 25.9373 35.807ZM36.4771 42.9213C35.0217 41.6392 33.5702 40.2207 32.1528 38.6951C33.529 38.7392 34.9319 38.7616 36.3578 38.7616C37.8227 38.7616 39.2708 38.7348 40.6961 38.683C39.2966 40.2361 37.8836 41.6567 36.4771 42.9213ZM51.1314 29.6655C52.0921 31.4538 52.9018 33.1837 53.5447 34.8287C51.461 35.2171 49.2111 35.5298 46.8405 35.7621C47.6002 34.7786 48.3358 33.7829 49.0469 32.7756C49.7699 31.7516 50.4649 30.7147 51.1314 29.6655V29.6655ZM46.3874 31.5228C45.2987 33.0673 44.1488 34.5824 42.9396 36.0659C40.7491 36.1926 38.5537 36.2555 36.3578 36.2545C34.1211 36.2545 31.9456 36.1977 29.8507 36.0867C28.6098 34.6067 27.438 33.0889 26.3377 31.5366H26.338C25.2428 29.9925 24.2199 28.4149 23.2714 26.8074C24.2175 25.1995 25.2373 23.6212 26.3287 22.0759L26.3284 22.0761C27.4194 20.5304 28.5819 19.0191 29.8133 17.5455C31.9506 17.4134 34.1424 17.3446 36.3575 17.3446H36.3578C38.583 17.3446 40.7775 17.4141 42.9143 17.5471C44.1333 19.0185 45.2884 20.5246 46.3773 22.0626C47.4723 23.6045 48.5056 25.1751 49.4756 26.7719C48.5156 28.385 47.4855 29.9696 46.3874 31.5228V31.5228ZM52.721 3.52322C55.1276 4.65674 56.0636 9.22773 54.5515 15.222C54.4549 15.6045 54.3465 15.994 54.2286 16.389C51.2465 15.8269 48.0087 15.4089 44.6187 15.1491C42.6439 12.8525 40.5976 10.7645 38.5434 8.95696C39.0817 8.53316 39.6329 8.12034 40.1964 7.7189C45.5025 3.94806 50.4616 2.45917 52.721 3.52322V3.52322ZM36.3578 21.5064C39.9022 21.5064 42.7756 23.853 42.7756 26.7476C42.7756 29.6421 39.9022 31.9887 36.3578 31.9887C32.8134 31.9887 29.9399 29.6421 29.9399 26.7476C29.9399 23.853 32.8134 21.5064 36.3578 21.5064V21.5064Z" fill="#00D8FF"/>
</g>
<defs>
<clipPath id="clip0_1_82">
<rect width="71.8768" height="52.274" fill="white" transform="translate(0.419922 0.686646)"/>
</clipPath>
</defs>
</svg>
