<svg width="42" height="35" viewBox="0 0 42 35" fill="none" xmlns="http://www.w3.org/2000/svg">
<g clip-path="url(#clip0_1_124)">
<path d="M0.48584 30.2489C0.48584 32.7137 2.8364 34.7114 5.73583 34.7114H35.9518C38.8517 34.7114 41.202 32.7135 41.202 30.2489V4.56535C41.202 2.10043 38.8514 0.102722 35.952 0.102722H5.73599C2.83608 0.102722 0.48584 2.1007 0.48584 4.56522V30.2488V30.2489Z" fill="#563D7C"/>
<path d="M17.37 15.4114V10.5103H22.4454C22.9289 10.5103 23.3949 10.5445 23.8437 10.6131C24.2926 10.6815 24.6897 10.8037 25.035 10.9798C25.3801 11.156 25.6564 11.4006 25.8636 11.7135C26.0707 12.0266 26.1744 12.4277 26.1744 12.9167C26.1744 13.7972 25.8636 14.4331 25.2421 14.8244C24.6207 15.2158 23.8266 15.4114 22.8597 15.4114H17.37V15.4114ZM11.9492 6.92981V27.8843H23.8956C25.0005 27.8843 26.0766 27.767 27.1239 27.5321C28.1712 27.2973 29.1034 26.9354 29.9206 26.4463C30.7376 25.9572 31.388 25.3261 31.8713 24.5533C32.3548 23.7805 32.5964 22.8658 32.5964 21.8093C32.5964 20.4983 32.2223 19.3783 31.4743 18.449C30.7262 17.5195 29.5925 16.869 28.0733 16.4972C29.1782 16.0473 30.0127 15.47 30.5767 14.7657C31.1405 14.0614 31.4225 13.181 31.4225 12.1244C31.4225 11.1461 31.2326 10.3244 30.8528 9.65917C30.473 8.99403 29.9378 8.46084 29.2472 8.05973C28.5568 7.65862 27.7281 7.36999 26.7613 7.19397C25.7946 7.01782 24.7242 6.92981 23.5503 6.92981H11.9492V6.92981ZM17.37 24.3038V18.5516H23.274C24.448 18.5516 25.3917 18.7814 26.1054 19.2413C26.8189 19.7011 27.1758 20.469 27.1758 21.5451C27.1758 22.093 27.0663 22.5429 26.8477 22.8951C26.629 23.2473 26.3355 23.5262 25.9672 23.7315C25.599 23.937 25.173 24.0837 24.6897 24.1718C24.2062 24.2597 23.7 24.3038 23.1705 24.3038H17.37V24.3038Z" fill="white"/>
</g>
<defs>
<clipPath id="clip0_1_124">
<rect width="40.7161" height="34.6087" fill="white" transform="translate(0.48584 0.102722)"/>
</clipPath>
</defs>
</svg>
