<svg width="144" height="105" viewBox="0 0 144 105" fill="none" xmlns="http://www.w3.org/2000/svg">
<g clip-path="url(#clip0_1_162)">
<path d="M118.07 33.7885C116.548 33.3621 115.013 32.9671 113.467 32.6039C113.727 31.7372 113.966 30.881 114.178 30.0399C117.662 16.2275 115.385 5.09998 107.605 1.43626C100.145 -2.07602 87.9461 1.58633 75.6256 10.3429C74.4114 11.2074 73.2241 12.0968 72.0649 13.0104C71.2888 12.4029 70.4991 11.8072 69.6961 11.2237C56.7836 1.86092 43.8409 -2.08515 36.0693 1.58906C28.6166 5.11229 26.4098 15.573 29.5466 28.6633C29.8586 29.9597 30.211 31.2495 30.6033 32.5313C28.7713 32.9565 27.0035 33.409 25.3117 33.8906C10.1728 38.2012 0.504883 44.9561 0.504883 51.9629C0.504883 59.1996 10.8838 66.4582 26.6516 70.8595C27.9299 71.2148 29.2189 71.5441 30.5173 71.847C30.0956 73.2276 29.7213 74.6175 29.3946 76.0152C26.4042 88.8784 28.7395 99.0918 36.172 102.593C43.8487 106.208 56.7333 102.492 69.2788 93.536C70.2961 92.8079 71.291 92.0591 72.2626 91.2904C73.518 92.2796 74.8068 93.24 76.1277 94.1705C88.2806 102.71 100.283 106.159 107.708 102.648C115.377 99.0225 117.87 88.0505 114.634 74.7015C114.379 73.6557 114.093 72.6151 113.777 71.5806C114.681 71.3617 115.57 71.1363 116.435 70.9019C132.828 66.4668 143.493 59.2963 143.493 51.9629C143.493 44.9306 133.513 38.13 118.07 33.7885V33.7885ZM114.514 66.1671C113.733 66.3783 112.93 66.5822 112.113 66.7806C110.303 62.102 107.861 57.1273 104.872 51.9871C107.724 46.9696 110.072 42.0583 111.831 37.4102C113.294 37.756 114.713 38.1204 116.082 38.505C129.314 42.2252 137.385 47.7249 137.385 51.9629C137.385 56.4769 128.668 62.3369 114.514 66.1671V66.1671ZM108.642 75.6704C110.073 81.5728 110.277 86.9097 109.329 91.082C108.478 94.831 106.765 97.3302 104.647 98.3314C100.141 100.462 90.5048 97.6928 80.1119 90.3891C78.8833 89.524 77.6843 88.6311 76.5165 87.7116C80.5459 84.1131 84.5724 79.9298 88.5024 75.2836C95.4149 74.7827 101.945 73.9635 107.868 72.8455C108.153 73.782 108.411 74.7239 108.642 75.6704V75.6704ZM49.2527 97.9633C44.8502 99.2327 41.3436 99.2692 39.224 98.2712C34.7137 96.147 32.8386 87.946 35.3962 76.9457C35.7003 75.6459 36.0484 74.3531 36.4402 73.069C42.2971 74.1272 48.7801 74.8881 55.7089 75.347C59.6657 79.8933 63.8084 84.072 67.9836 87.7312C67.0963 88.4323 66.188 89.1155 65.2595 89.7802C59.7115 93.7404 54.1523 96.5502 49.2527 97.9633V97.9633ZM28.6277 66.1393C21.6554 64.193 15.8973 61.6637 11.9506 58.9036C8.40386 56.4235 6.61372 53.9608 6.61372 51.9629C6.61372 47.7108 14.3759 42.2873 27.3224 38.6012C28.8936 38.1542 30.538 37.7323 32.2443 37.3363C34.0339 42.0893 36.3809 47.059 39.2133 52.0843C36.3441 57.1839 33.9636 62.2329 32.1567 67.042C30.9715 66.7648 29.7948 66.4638 28.6277 66.1393V66.1393ZM35.5415 27.7049C32.8543 16.4898 34.6388 8.02976 39.1301 5.90643C43.9135 3.64489 54.4913 6.86934 65.6405 14.954C66.3675 15.4824 67.0827 16.0215 67.7858 16.571C63.6314 20.2142 59.5266 24.3619 55.605 28.8813C48.8801 29.3904 42.4429 30.2078 36.5245 31.303C36.1599 30.1107 35.8321 28.9111 35.5415 27.7054V27.7049ZM97.2202 40.143C95.8223 38.171 94.3725 36.2239 92.8719 34.303C97.4341 34.7742 101.805 35.3996 105.91 36.164C104.678 39.3899 103.142 42.7621 101.334 46.2197C100.012 44.1719 98.6408 42.146 97.2202 40.143V40.143ZM72.0677 20.1362C74.885 22.629 77.7068 25.4119 80.4822 28.4316C74.852 28.2144 69.2125 28.2135 63.5822 28.4288C66.3604 25.437 69.2062 22.6577 72.0677 20.1362ZM46.7537 40.1772C45.3509 42.164 44.0049 44.1774 42.7171 46.2156C40.9387 42.7703 39.4167 39.3826 38.1739 36.1111C42.2535 35.3658 46.604 34.7564 51.1372 34.2939C49.6199 36.2265 48.1583 38.188 46.7537 40.1767V40.1772ZM51.2674 69.9869C46.5839 69.5599 42.1681 68.982 38.0895 68.2567C39.3519 64.9269 40.9074 61.4671 42.7244 57.9479C44.0173 59.9876 45.3688 62.0022 46.7778 63.99C48.2266 66.0335 49.7269 68.035 51.2674 69.9869ZM72.2363 84.1409C69.3408 81.5902 66.4531 78.768 63.633 75.7329C66.371 75.8204 69.1621 75.8651 71.999 75.8651C74.9135 75.8651 77.7945 75.8118 80.6302 75.7087C77.8458 78.7986 75.0347 81.6248 72.2363 84.1409ZM101.391 57.7682C103.303 61.3261 104.914 64.7677 106.193 68.0405C102.047 68.8132 97.5709 69.4354 92.8546 69.8974C94.3659 67.9409 95.8294 65.9599 97.2442 63.9558C98.6826 61.9186 100.065 59.8556 101.391 57.7682V57.7682ZM91.9531 61.4634C89.7871 64.5361 87.4994 67.5505 85.0936 70.5018C80.7355 70.7539 76.3679 70.8791 71.999 70.8772C67.549 70.8772 63.2208 70.7641 59.0529 70.5433C56.5843 67.5989 54.2529 64.5792 52.0638 61.4908H52.0644C49.8856 58.4187 47.8505 55.2802 45.9634 52.082C47.8457 48.883 49.8746 45.743 52.046 42.6686L52.0454 42.6691C54.2159 39.5939 56.5287 36.5871 58.9787 33.6553C63.2309 33.3925 67.5915 33.2557 71.9984 33.2557H71.999C76.426 33.2557 80.7922 33.3939 85.0433 33.6585C87.4685 36.5859 89.7665 39.5823 91.933 42.6421C94.1115 45.7098 96.1673 48.8345 98.0971 52.0113C96.1871 55.2206 94.1378 58.3733 91.9531 61.4634V61.4634ZM104.554 5.75773C109.342 8.01289 111.204 17.107 108.196 29.0327C108.003 29.7936 107.788 30.5686 107.553 31.3545C101.62 30.236 95.1787 29.4045 88.4342 28.8877C84.5054 24.3185 80.4341 20.1645 76.3473 16.5683C77.4183 15.7251 78.5149 14.9038 79.636 14.1051C90.1925 6.60296 100.059 3.64078 104.554 5.75773V5.75773ZM71.999 41.5356C79.0506 41.5356 84.7674 46.2041 84.7674 51.9629C84.7674 57.7217 79.0506 62.3903 71.999 62.3903C64.9473 62.3903 59.2306 57.7217 59.2306 51.9629C59.2306 46.2041 64.9473 41.5356 71.999 41.5356V41.5356Z" fill="#00D8FF"/>
</g>
<defs>
<clipPath id="clip0_1_162">
<rect width="143" height="104" fill="white" transform="translate(0.5 0.11438)"/>
</clipPath>
</defs>
</svg>
