<svg width="85" height="74" viewBox="0 0 85 74" fill="none" xmlns="http://www.w3.org/2000/svg">
<path d="M64.1242 25.6028L39.6551 13.2373C38.1119 12.4723 36.1026 12.4723 34.5473 13.2373L9.81671 25.6028C8.22416 26.4001 7.09717 27.8986 7.09717 29.5015V54.1996C7.09717 55.8024 8.25357 57.3015 9.84612 58.1031L16.38 61.333C19.5029 62.6717 20.6066 62.6717 22.0277 62.6717C26.6517 62.6717 29.293 60.2382 29.293 55.9937V31.6104C29.293 31.2661 29.0871 30.7537 28.6987 30.7537H25.5785C25.1834 30.7537 24.2989 31.2661 24.2989 31.61V55.9932C24.2989 57.8747 22.3435 59.747 18.6889 58.1567L11.9375 54.7699C11.7022 54.6589 11.5363 54.4353 11.5363 54.1996V29.5015C11.5363 29.2687 11.8443 29.035 12.0812 28.9157L36.7319 16.5715C36.9622 16.458 37.3006 16.458 37.5304 16.5715L61.8802 28.9128C62.1133 29.035 62.0312 29.2615 62.0312 29.5015V54.1996C62.0312 54.4353 62.1327 54.6647 61.9024 54.7781L37.4394 67.1296C37.2296 67.2392 36.9694 67.2392 36.7396 67.1296L30.4654 63.8703C30.2762 63.7747 30.0515 63.7404 29.87 63.8288C28.1243 64.6898 27.8025 64.8043 26.165 65.2983C25.7622 65.4205 25.1679 65.6325 26.3925 66.2299L34.6038 70.4575C35.3878 70.8516 36.2771 71.0591 37.1824 71.0592C38.0936 71.0592 38.9859 70.8535 39.7721 70.4575L64.1237 58.1031C65.7162 57.2957 66.4709 55.8024 66.4709 54.1996V29.5015C66.4709 27.8986 65.7162 26.404 64.1242 25.6028V25.6028ZM44.7801 50.2859C38.2734 50.2859 36.8401 48.7236 36.3623 45.9077C36.3068 45.6044 36.0111 45.2417 35.6565 45.2417H32.4764C32.083 45.2417 31.7667 45.657 31.7667 45.998C31.7667 49.6035 34.019 53.9721 44.7806 53.9721C52.5708 53.9721 57.0371 51.3377 57.0371 46.6755C57.0371 42.0529 53.4486 40.8398 45.8937 39.9695C38.2573 39.0911 37.4815 38.6472 37.4815 37.0903C37.4815 35.8066 38.1385 34.0946 43.7929 34.0946C48.8452 34.0946 50.7074 35.0383 51.4738 38.0021C51.5392 38.2807 51.8317 38.4806 52.1618 38.4806H55.3547C55.5511 38.4806 55.7387 38.4116 55.8763 38.2894C56.0095 38.158 56.0799 37.9934 56.0622 37.8166C55.5678 32.713 51.6719 30.3345 43.7923 30.3345C36.7835 30.3345 32.6023 32.9105 32.6023 37.2284C32.6023 41.9119 36.7624 43.2061 43.4905 43.7852C51.5392 44.4719 52.1652 45.4957 52.1652 46.8735C52.1652 49.2664 49.9578 50.2859 44.7801 50.2859Z" fill="#83CD29"/>
</svg>
