<svg width="50" height="43" viewBox="0 0 50 43" fill="none" xmlns="http://www.w3.org/2000/svg">
<path d="M37.7435 15.3478L23.5854 8.19305C22.6925 7.75043 21.5299 7.75043 20.63 8.19305L6.32062 15.3478C5.39916 15.8092 4.74707 16.6762 4.74707 17.6037V31.8942C4.74707 32.8217 5.41618 33.689 6.33764 34.1529L10.1182 36.0217C11.9252 36.7963 12.5638 36.7963 13.386 36.7963C16.0615 36.7963 17.5898 35.3882 17.5898 32.9323V18.8239C17.5898 18.6247 17.4707 18.3282 17.2459 18.3282H15.4405C15.2119 18.3282 14.7002 18.6247 14.7002 18.8237V32.932C14.7002 34.0207 13.5687 35.104 11.4542 34.1839L7.54774 32.2242C7.41161 32.16 7.31561 32.0306 7.31561 31.8942V17.6037C7.31561 17.469 7.4938 17.3337 7.6309 17.2647L21.894 10.1222C22.0272 10.0566 22.2231 10.0566 22.356 10.1222L36.4451 17.263C36.58 17.3337 36.5324 17.4648 36.5324 17.6037V31.8942C36.5324 32.0306 36.5912 32.1633 36.458 32.229L22.3034 39.3757C22.182 39.4391 22.0314 39.4391 21.8985 39.3757L18.2682 37.4898C18.1587 37.4345 18.0287 37.4146 17.9237 37.4658C16.9136 37.964 16.7274 38.0302 15.7799 38.3161C15.5468 38.3868 15.203 38.5094 15.9116 38.8551L20.6627 41.3012C21.1163 41.5292 21.6309 41.6493 22.1547 41.6494C22.6819 41.6494 23.1982 41.5304 23.6531 41.3012L37.7432 34.1529C38.6647 33.6857 39.1013 32.8217 39.1013 31.8942V17.6037C39.1013 16.6762 38.6647 15.8114 37.7435 15.3478V15.3478ZM26.5508 29.6297C22.7859 29.6297 21.9566 28.7258 21.6802 27.0964C21.6481 26.921 21.4769 26.7111 21.2718 26.7111H19.4317C19.2041 26.7111 19.0211 26.9514 19.0211 27.1487C19.0211 29.2349 20.3243 31.7626 26.5511 31.7626C31.0586 31.7626 33.6428 30.2383 33.6428 27.5407C33.6428 24.866 31.5665 24.1641 27.1952 23.6606C22.7766 23.1523 22.3278 22.8955 22.3278 21.9946C22.3278 21.2519 22.7079 20.2613 25.9796 20.2613C28.9029 20.2613 29.9804 20.8073 30.4238 22.5222C30.4617 22.6834 30.6309 22.7991 30.8219 22.7991H32.6694C32.783 22.7991 32.8915 22.7591 32.9712 22.6884C33.0482 22.6124 33.089 22.5172 33.0787 22.4149C32.7926 19.4619 30.5384 18.0857 25.9793 18.0857C21.9239 18.0857 19.5046 19.5762 19.5046 22.0745C19.5046 24.7844 21.9117 25.5333 25.8046 25.8683C30.4617 26.2657 30.8239 26.8581 30.8239 27.6553C30.8239 29.0399 29.5467 29.6297 26.5508 29.6297Z" fill="#83CD29"/>
</svg>
