<svg width="169" height="146" viewBox="0 0 169 146" fill="none" xmlns="http://www.w3.org/2000/svg">
<path d="M127.224 50.5323L78.5425 25.931C75.4724 24.4091 71.4749 24.4091 68.3805 25.931L19.1786 50.5323C16.0102 52.1186 13.7681 55.1 13.7681 58.2889V107.426C13.7681 110.615 16.0687 113.597 19.2371 115.192L32.2364 121.618C38.4496 124.281 40.6454 124.281 43.4726 124.281C52.672 124.281 57.9269 119.44 57.9269 110.996V62.4847C57.9269 61.7996 57.5174 60.7802 56.7446 60.7802H50.537C49.7509 60.7802 47.9912 61.7996 47.9912 62.4837V110.995C47.9912 114.738 44.1008 118.463 36.83 115.299L23.398 108.561C22.9299 108.34 22.5998 107.895 22.5998 107.426V58.2889C22.5998 57.8257 23.2125 57.3607 23.6839 57.1234L72.7268 32.5644C73.1849 32.3386 73.8584 32.3386 74.3154 32.5644L122.76 57.1176C123.224 57.3607 123.06 57.8113 123.06 58.2889V107.426C123.06 107.895 123.262 108.351 122.804 108.577L74.1344 133.151C73.7171 133.369 73.1993 133.369 72.7423 133.151L60.2596 126.666C59.8832 126.476 59.4361 126.408 59.0751 126.584C55.602 128.297 54.9617 128.524 51.7039 129.507C50.9024 129.75 49.72 130.172 52.1565 131.361L68.4931 139.772C70.0527 140.556 71.8221 140.968 73.6232 140.969C75.4359 140.969 77.2111 140.559 78.7755 139.772L127.223 115.192C130.392 113.586 131.893 110.615 131.893 107.426V58.2889C131.893 55.1 130.392 52.1263 127.224 50.5323V50.5323ZM88.7388 99.6398C75.7936 99.6398 72.9421 96.5316 71.9916 90.9292C71.8812 90.3258 71.2927 89.6042 70.5873 89.6042H64.2604C63.4777 89.6042 62.8485 90.4305 62.8485 91.1089C62.8485 98.2822 67.3295 106.974 88.7399 106.974C104.239 106.974 113.124 101.732 113.124 92.4569C113.124 83.2601 105.985 80.8465 90.9545 79.1152C75.7616 77.3675 74.2183 76.4845 74.2183 73.3869C74.2183 70.8331 75.5254 67.427 86.7748 67.427C96.8265 67.427 100.531 69.3044 102.056 75.2009C102.186 75.7553 102.768 76.153 103.425 76.153H109.777C110.168 76.153 110.541 76.0156 110.815 75.7726C111.08 75.5112 111.22 75.1836 111.185 74.8319C110.201 64.6782 102.45 59.9462 86.7737 59.9462C72.8295 59.9462 64.511 65.0711 64.511 73.6617C64.511 82.9795 72.7875 85.5545 86.1732 86.7065C102.186 88.0727 103.432 90.1096 103.432 92.8508C103.432 97.6116 99.04 99.6398 88.7388 99.6398Z" fill="#83CD29"/>
</svg>
