<svg width="28" height="25" viewBox="0 0 28 25" fill="none" xmlns="http://www.w3.org/2000/svg">
<path fill-rule="evenodd" clip-rule="evenodd" d="M14.058 0.144043C6.36515 0.144043 0.134277 5.76127 0.134277 12.6965C0.134277 18.251 4.11995 22.9424 9.65463 24.6056C10.3508 24.7155 10.6119 24.3389 10.6119 24.0094C10.6119 23.7113 10.5945 22.7228 10.5945 21.6715C7.09615 22.2521 6.1911 20.9027 5.91263 20.1966C5.75599 19.8357 5.0772 18.7217 4.48544 18.4236C3.99811 18.1882 3.30193 17.6076 4.46804 17.592C5.56453 17.5763 6.34774 18.502 6.60881 18.8786C7.86195 20.7771 9.86349 20.2437 10.6641 19.9142C10.7859 19.0983 11.1514 18.5491 11.5517 18.2353C8.45371 17.9215 5.21644 16.8388 5.21644 12.0375C5.21644 10.6724 5.75599 9.5427 6.64362 8.66402C6.50439 8.35021 6.01706 7.06358 6.78286 5.33762C6.78286 5.33762 7.94897 5.00812 10.6119 6.62425C11.7258 6.34182 12.9093 6.2006 14.0928 6.2006C15.2763 6.2006 16.4599 6.34182 17.5738 6.62425C20.2367 4.99243 21.4028 5.33762 21.4028 5.33762C22.1686 7.06358 21.6813 8.35021 21.542 8.66402C22.4297 9.5427 22.9692 10.6567 22.9692 12.0375C22.9692 16.8545 19.7145 17.9215 16.6165 18.2353C17.1212 18.6275 17.5564 19.3807 17.5564 20.5575C17.5564 22.2364 17.5389 23.5858 17.5389 24.0094C17.5389 24.3389 17.8 24.7312 18.4962 24.6056C21.2603 23.7643 23.6621 22.1628 25.3637 20.0265C27.0653 17.8901 27.9809 15.3265 27.9817 12.6965C27.9817 5.76127 21.7509 0.144043 14.058 0.144043Z" fill="black"/>
</svg>
