<svg width="148" height="84" viewBox="0 0 148 84" fill="none" xmlns="http://www.w3.org/2000/svg">
<path d="M127.005 48.2593C121.874 48.2794 117.414 49.2162 113.68 50.601C112.309 48.5441 110.939 46.7116 110.698 45.3674C110.429 43.7996 110.107 42.8423 110.429 40.9688C110.752 39.0953 112.202 36.4274 112.175 36.2239C112.149 36.0204 111.853 35.0631 108.898 35.043C105.943 35.0225 103.391 35.4705 103.095 36.061C102.799 36.6514 102.235 37.9956 101.859 39.38C101.349 41.4169 95.9493 48.6864 92.8601 52.4946C91.8657 51.0084 91.0062 49.7049 90.8178 48.6663C90.5493 47.0985 90.2267 46.1413 90.5493 44.2677C90.8719 42.3942 92.3226 39.7268 92.2955 39.5228C92.2685 39.3193 91.9729 38.362 89.018 38.342C86.0625 38.3214 83.5102 38.7695 83.2153 39.3599C82.9197 39.9508 82.5971 41.3352 81.9795 42.6794C81.3613 44.0236 74.1885 56.1608 72.3081 59.2964C71.5481 60.5656 70.751 61.8218 69.9172 63.064C69.9172 63.064 69.8901 63.1251 69.8094 63.2269C69.5475 63.6164 69.279 64.0033 69.004 64.3877V64.4078C68.6007 64.958 68.1709 65.4668 67.956 65.4668C67.7947 65.4668 67.4992 64.0007 68.0096 62.0049C69.0841 57.7898 71.6363 51.2325 71.6098 51.0084C71.6098 50.8862 72.0932 49.7459 69.9442 49.155C67.8483 48.5646 67.0965 49.542 66.9081 49.542C66.7203 49.542 66.5854 49.8883 66.5854 49.8883C66.5854 49.8883 68.9233 42.5165 62.1262 42.5165C57.8819 42.5165 52.0251 46.0395 49.1237 49.2162C45.8255 50.5767 42.53 51.9412 39.2374 53.3095C37.6531 53.9816 36.014 54.6537 34.4827 55.2848C34.3749 55.2035 34.2678 55.1013 34.16 55.0201C25.9393 48.3611 10.7343 43.6568 11.379 34.7172C11.6209 31.4589 13.0981 22.9058 40.5809 12.5203C63.2007 4.06896 81.2005 6.41062 84.3168 11.6036C88.776 19.0164 74.6725 32.7826 51.2997 34.7779C42.3808 35.5317 37.7061 32.9249 36.5245 31.9476C35.2887 30.9291 35.1003 30.868 34.6434 31.0719C33.8916 31.3777 34.3749 32.2939 34.6434 32.8232C35.3423 34.2076 38.2165 36.6514 43.079 37.8533C47.3775 38.9119 57.8278 39.5027 70.4812 35.7963C84.6389 31.6419 95.7073 20.0955 92.4569 10.4227C89.2058 0.607112 67.7141 -2.6307 47.3775 2.84703C35.2887 6.1058 22.1784 11.2372 12.749 17.9168C1.54626 25.8584 -0.227052 32.762 0.498288 35.654C3.10467 45.9172 21.7757 52.5968 29.244 57.5452C28.8678 57.7081 28.5181 57.8509 28.2231 57.9732C24.4887 59.3781 10.2503 65.0187 6.70429 70.9856C2.67488 77.7464 7.34955 82.5935 10.4387 83.2446C20.0295 85.2609 29.8887 81.6362 35.1809 75.6488C40.4732 69.6619 39.8285 61.8827 37.384 58.3191C37.357 58.2784 37.3305 58.2374 37.2763 58.1968C38.2436 57.7692 39.2374 57.3212 40.2047 56.8936C41.9826 56.097 43.783 55.3296 45.6047 54.5921C44.691 56.4862 44.0193 58.7466 43.6972 62.0049C43.2939 65.8336 45.3622 70.8021 48.0757 72.7569C49.285 73.6128 50.7086 73.6329 51.6224 73.6329C54.7922 73.6329 56.2164 71.6371 57.8013 69.2749C59.7353 66.3835 61.4816 63.0234 61.4816 63.0234C61.4816 63.0234 59.3055 72.1057 65.216 72.1057C67.3649 72.1057 69.541 69.9877 70.5083 68.9085V68.9286C70.5083 68.9286 70.5618 68.8675 70.6696 68.7251C70.8845 68.4605 71.0187 68.2971 71.0187 68.2971V68.257C71.8783 67.1163 73.8129 64.53 76.6872 60.2332C80.3945 54.6943 83.9677 47.7706 83.9677 47.7706C83.9677 47.7706 84.2903 49.4607 85.3913 52.271C86.0365 53.9205 87.3789 55.7328 88.4539 57.4841C87.5944 58.4007 87.0568 58.9095 87.0568 58.9095L87.0839 58.93C86.3851 59.6222 85.6332 60.3756 84.8002 61.1092C81.8717 63.7562 78.3798 66.7909 77.8959 67.6661C77.3313 68.7046 77.4661 69.4584 78.5412 70.0693C79.3201 70.5174 80.7166 70.5781 82.1408 70.5174C84.7737 70.3746 86.6271 69.8859 87.5402 69.5806C88.9644 69.1937 90.63 68.6028 92.1878 67.7272C95.0627 66.1184 96.8083 63.8173 96.6476 60.7835C96.5669 59.1135 95.8416 57.4435 94.9549 55.8752C95.224 55.5905 95.4654 55.3053 95.7344 55.0201C100.274 49.99 103.794 44.4713 103.794 44.4713C103.794 44.4713 104.116 46.1613 105.217 48.972C105.755 50.3975 106.856 51.9452 107.823 53.4519C103.552 56.0792 100.919 59.1335 99.9787 61.1293C98.2866 64.8357 99.6025 66.5053 102.101 66.8922C103.229 67.0756 104.841 66.6682 106.023 66.2813C107.528 65.9149 109.301 65.2838 110.994 64.3466C113.868 62.7382 116.635 60.4978 116.474 57.464C116.393 56.0792 115.91 54.7144 115.238 53.3907C118.865 52.2509 123.539 51.6194 129.503 52.1487C142.291 53.289 144.816 59.3371 144.332 61.8831C143.849 64.4283 141.162 65.8131 140.276 66.2406C139.389 66.6686 139.094 66.811 139.175 67.1163C139.282 67.5643 139.712 67.5442 140.464 67.4626C141.512 67.3202 147.181 65.4056 147.422 60.7219C147.825 54.7349 140.303 48.1982 127.005 48.2593V48.2593ZM28.3573 73.47C24.1124 76.9725 18.2026 78.2962 15.6503 77.1764C12.9103 75.9746 13.9848 70.8021 19.1964 67.0962C22.3662 64.8357 26.4498 62.7378 29.1633 61.4551C29.7809 61.1699 30.6947 60.7629 31.7962 60.2537C31.984 60.1721 32.0918 60.1314 32.0918 60.1314L32.7364 59.8257C34.6434 65.1205 32.8171 69.7842 28.3573 73.47V73.47ZM59.252 57.5452C57.7742 60.2742 54.685 67.2591 52.8046 66.8721C51.1926 66.5463 50.1982 61.2516 52.4819 56.018C53.6371 53.3907 56.0816 50.2547 57.5057 49.0332C59.816 47.078 62.3682 46.426 62.9858 47.2208C63.7653 48.2593 60.1651 55.8346 59.252 57.5452V57.5452ZM84.7466 66.7905C84.1284 67.035 83.5379 67.1979 83.2688 67.0757C83.081 66.994 83.5379 66.6682 83.5379 66.6682C83.5379 66.6682 86.7348 64.0619 87.9971 62.8806C88.723 62.1884 89.582 61.3739 90.4957 60.4572V60.7219C90.4957 63.8378 86.5193 65.9354 84.746 66.7905H84.7466ZM104.411 63.3898C103.955 63.1452 104.035 62.3307 105.567 59.7851C106.158 58.7872 107.554 57.1177 109.946 55.5088C110.214 56.1604 110.403 56.7919 110.375 57.3823C110.348 61.3128 106.642 62.7788 104.411 63.3898Z" fill="#CD6799"/>
</svg>
