<svg width="75" height="43" viewBox="0 0 75 43" fill="none" xmlns="http://www.w3.org/2000/svg">
<path d="M63.7884 25.042C61.2094 25.0521 58.9678 25.5229 57.091 26.219C56.4021 25.1851 55.7135 24.2641 55.5922 23.5884C55.4569 22.8004 55.295 22.3192 55.4569 21.3775C55.6191 20.4358 56.3482 19.0949 56.3346 18.9926C56.3213 18.8903 56.1725 18.4091 54.6872 18.399C53.202 18.3887 51.9191 18.6139 51.7706 18.9107C51.622 19.2075 51.3385 19.8831 51.1494 20.579C50.8928 21.6027 48.1789 25.2567 46.6262 27.1708C46.1264 26.4238 45.6943 25.7686 45.5996 25.2466C45.4647 24.4586 45.3025 23.9774 45.4647 23.0357C45.6268 22.094 46.356 20.7533 46.3424 20.6507C46.3288 20.5485 46.1802 20.0673 44.695 20.0572C43.2094 20.0469 41.9266 20.2721 41.7783 20.5689C41.6298 20.8659 41.4676 21.5617 41.1572 22.2373C40.8465 22.913 37.2412 29.0136 36.296 30.5896C35.914 31.2276 35.5133 31.859 35.0942 32.4833C35.0942 32.4833 35.0806 32.5141 35.0401 32.5652C34.9084 32.761 34.7735 32.9555 34.6353 33.1487V33.1588C34.4326 33.4353 34.2165 33.6911 34.1085 33.6911C34.0274 33.6911 33.8789 32.9542 34.1354 31.951C34.6755 29.8323 35.9584 26.5364 35.945 26.4238C35.945 26.3623 36.188 25.7892 35.1079 25.4922C34.0544 25.1954 33.6765 25.6867 33.5818 25.6867C33.4874 25.6867 33.4196 25.8608 33.4196 25.8608C33.4196 25.8608 34.5947 22.1555 31.1783 22.1555C29.0449 22.1555 26.1011 23.9262 24.6427 25.5229C22.9849 26.2068 21.3285 26.8926 19.6735 27.5804C18.8772 27.9182 18.0533 28.256 17.2836 28.5732C17.2295 28.5324 17.1756 28.481 17.1215 28.4402C12.9895 25.0932 5.34687 22.7286 5.67091 18.2353C5.79254 16.5975 6.53502 12.2984 20.3488 7.07832C31.7183 2.83039 40.7657 4.0074 42.332 6.61757C44.5734 10.3435 37.4844 17.2628 25.7365 18.2658C21.2535 18.6447 18.9038 17.3344 18.3099 16.8431C17.6888 16.3313 17.5941 16.3005 17.3644 16.403C16.9865 16.5567 17.2295 17.0172 17.3644 17.2833C17.7157 17.9791 19.1604 19.2075 21.6045 19.8116C23.765 20.3436 29.0177 20.6406 35.3777 18.7777C42.4939 16.6895 48.0573 10.8859 46.4235 6.02402C44.7894 1.09035 33.9869 -0.537086 23.765 2.21621C17.6888 3.85418 11.0991 6.4334 6.35953 9.79078C0.728655 13.7825 -0.162672 17.2525 0.201909 18.7061C1.51197 23.8648 10.8967 27.2222 14.6505 29.7094C14.4614 29.7913 14.2856 29.8631 14.1374 29.9245C12.2603 30.6307 5.10363 33.4659 3.32126 36.465C1.29594 39.8632 3.64559 42.2995 5.19832 42.6268C10.019 43.6403 14.9745 41.8184 17.6346 38.8089C20.2947 35.7997 19.9707 31.8896 18.742 30.0984C18.7284 30.078 18.715 30.0573 18.6878 30.0369C19.174 29.822 19.6735 29.5968 20.1597 29.3819C21.0534 28.9815 21.9583 28.5958 22.874 28.2251C22.4147 29.1771 22.0771 30.3133 21.9152 31.951C21.7125 33.8755 22.7521 36.3728 24.116 37.3553C24.7238 37.7856 25.4394 37.7957 25.8986 37.7957C27.4919 37.7957 28.2077 36.7925 29.0044 35.6052C29.9765 34.1518 30.8542 32.4629 30.8542 32.4629C30.8542 32.4629 29.7605 37.028 32.7313 37.028C33.8114 37.028 34.9052 35.9634 35.3914 35.421V35.4311C35.3914 35.4311 35.4183 35.4004 35.4724 35.3288C35.5805 35.1958 35.6479 35.1137 35.6479 35.1137V35.0935C36.08 34.5202 37.0524 33.2202 38.4971 31.0605C40.3605 28.2765 42.1565 24.7964 42.1565 24.7964C42.1565 24.7964 42.3187 25.6459 42.8721 27.0584C43.1964 27.8875 43.8711 28.7984 44.4115 29.6787C43.9794 30.1394 43.7092 30.3952 43.7092 30.3952L43.7229 30.4055C43.3716 30.7534 42.9937 31.132 42.575 31.5008C41.103 32.8313 39.3479 34.3566 39.1046 34.7965C38.8208 35.3185 38.8886 35.6974 39.429 36.0045C39.8205 36.2297 40.5224 36.2602 41.2383 36.2297C42.5616 36.1579 43.4932 35.9123 43.9522 35.7588C44.668 35.5644 45.5052 35.2674 46.2882 34.8272C47.7332 34.0186 48.6107 32.862 48.5299 31.3371C48.4893 30.4977 48.1248 29.6583 47.6791 28.87C47.8143 28.7269 47.9357 28.5836 48.0709 28.4402C50.3528 25.9119 52.1218 23.138 52.1218 23.138C52.1218 23.138 52.284 23.9875 52.8374 25.4002C53.1076 26.1167 53.6612 26.8947 54.1471 27.652C52.0002 28.9725 50.6768 30.5078 50.2042 31.5109C49.3537 33.3739 50.0151 34.2131 51.271 34.4075C51.838 34.4997 52.6483 34.2949 53.2425 34.1005C53.9986 33.9163 54.8899 33.5991 55.7407 33.128C57.1857 32.3196 58.5763 31.1935 58.4952 29.6686C58.4546 28.9725 58.2117 28.2866 57.874 27.6212C59.6969 27.0483 62.0466 26.7309 65.044 26.9969C71.4718 27.5701 72.7411 30.6101 72.4978 31.8898C72.2549 33.1691 70.9046 33.8651 70.4592 34.08C70.0132 34.2952 69.865 34.3667 69.9055 34.5202C69.9594 34.7454 70.1754 34.7353 70.5536 34.6942C71.0803 34.6227 73.9295 33.6603 74.0508 31.3061C74.2535 28.2969 70.4725 25.0113 63.7884 25.042V25.042ZM14.2048 37.7138C12.0712 39.4742 9.1007 40.1396 7.81786 39.5768C6.44062 38.9727 6.98068 36.3728 9.60022 34.5101C11.1935 33.3739 13.246 32.3194 14.61 31.6747C14.9204 31.5313 15.3797 31.3267 15.9333 31.0708C16.0277 31.0298 16.0819 31.0093 16.0819 31.0093L16.4059 30.8557C17.3644 33.517 16.4465 35.8611 14.2048 37.7138V37.7138ZM29.7335 29.7094C28.9908 31.0811 27.438 34.5919 26.4929 34.3975C25.6826 34.2337 25.1828 31.5724 26.3307 28.9418C26.9113 27.6212 28.14 26.0449 28.8558 25.431C30.017 24.4482 31.2999 24.1205 31.6103 24.52C32.0021 25.042 30.1925 28.8496 29.7335 29.7094V29.7094ZM42.548 34.3564C42.2373 34.4793 41.9405 34.5612 41.8053 34.4997C41.7109 34.4587 41.9405 34.2949 41.9405 34.2949C41.9405 34.2949 43.5474 32.9849 44.1818 32.3911C44.5467 32.0432 44.9785 31.6338 45.4377 31.1731V31.3061C45.4377 32.8723 43.4391 33.9266 42.5477 34.3564H42.548ZM52.4323 32.6471C52.2026 32.5242 52.2432 32.1148 53.0129 30.8353C53.31 30.3337 54.0119 29.4945 55.214 28.6858C55.3489 29.0134 55.4436 29.3308 55.43 29.6275C55.4164 31.6031 53.5532 32.34 52.4323 32.6471Z" fill="#CD6799"/>
</svg>
