<svg width="44" height="26" viewBox="0 0 44 26" fill="none" xmlns="http://www.w3.org/2000/svg">
<path d="M37.1864 14.7025C35.6942 14.7083 34.3971 14.9808 33.3112 15.3835C32.9126 14.7853 32.5142 14.2524 32.444 13.8614C32.3657 13.4055 32.2721 13.1271 32.3657 12.5822C32.4596 12.0373 32.8815 11.2614 32.8736 11.2022C32.8659 11.143 32.7798 10.8646 31.9204 10.8588C31.061 10.8528 30.3187 10.9831 30.2328 11.1549C30.1468 11.3266 29.9828 11.7175 29.8734 12.1201C29.7249 12.7125 28.1546 14.8267 27.2562 15.9342C26.967 15.502 26.717 15.1229 26.6622 14.8209C26.5841 14.3649 26.4903 14.0865 26.5841 13.5416C26.6779 12.9968 27.0998 12.221 27.092 12.1617C27.0841 12.1025 26.9981 11.8241 26.1388 11.8182C25.2792 11.8123 24.5369 11.9426 24.4512 12.1143C24.3652 12.2861 24.2714 12.6888 24.0918 13.0797C23.912 13.4706 21.8259 17.0005 21.279 17.9124C21.058 18.2815 20.8262 18.6469 20.5837 19.0081C20.5837 19.0081 20.5758 19.0259 20.5523 19.0555C20.4762 19.1688 20.3981 19.2813 20.3181 19.3931V19.3989C20.2008 19.559 20.0758 19.7069 20.0133 19.7069C19.9664 19.7069 19.8805 19.2806 20.0289 18.7001C20.3414 17.4742 21.0837 15.5672 21.076 15.502C21.076 15.4665 21.2165 15.1348 20.5916 14.963C19.982 14.7913 19.7633 15.0755 19.7085 15.0755C19.6539 15.0755 19.6147 15.1762 19.6147 15.1762C19.6147 15.1762 20.2947 13.0323 18.3179 13.0323C17.0835 13.0323 15.3801 14.0569 14.5363 14.9808C13.5771 15.3765 12.6187 15.7733 11.6611 16.1712C11.2003 16.3667 10.7236 16.5622 10.2783 16.7457C10.247 16.7221 10.2158 16.6924 10.1845 16.6687C7.79363 14.7321 3.37155 13.3639 3.55905 10.7641C3.62942 9.81643 4.05903 7.32895 12.0518 4.30853C18.6303 1.85063 23.8652 2.53166 24.7715 4.04193C26.0684 6.1978 21.9667 10.2014 15.1692 10.7817C12.5753 11.0009 11.2158 10.2428 10.8721 9.95856C10.5127 9.66237 10.4579 9.64459 10.325 9.7039C10.1064 9.79281 10.247 10.0593 10.325 10.2132C10.5283 10.6158 11.3642 11.3266 12.7784 11.6761C14.0285 11.984 17.0677 12.1558 20.7477 11.0779C24.8652 9.86965 28.0842 6.51164 27.1389 3.6985C26.1934 0.843828 19.943 -0.0978225 14.0285 1.49526C10.5127 2.44301 6.69984 3.93537 3.95749 5.87799C0.699406 8.18766 0.183676 10.1954 0.394626 11.0365C1.15264 14.0213 6.58272 15.964 8.75472 17.4031C8.64531 17.4505 8.5436 17.492 8.45782 17.5276C7.37173 17.9362 3.23081 19.5766 2.19951 21.312C1.02764 23.2782 2.38717 24.6879 3.2856 24.8772C6.07487 25.4637 8.94221 24.4095 10.4814 22.6682C12.0205 20.927 11.833 18.6646 11.1221 17.6282C11.1142 17.6164 11.1065 17.6044 11.0908 17.5926C11.3721 17.4683 11.6611 17.3379 11.9424 17.2136C12.4595 16.9819 12.9831 16.7587 13.5129 16.5443C13.2472 17.0951 13.0518 17.7525 12.9581 18.7001C12.8409 19.8136 13.4424 21.2586 14.2316 21.8271C14.5832 22.076 14.9973 22.0819 15.263 22.0819C16.1849 22.0819 16.5991 21.5015 17.06 20.8145C17.6225 19.9735 18.1304 18.9963 18.1304 18.9963C18.1304 18.9963 17.4975 21.6377 19.2164 21.6377C19.8414 21.6377 20.4743 21.0217 20.7556 20.7079V20.7137C20.7556 20.7137 20.7712 20.696 20.8025 20.6546C20.865 20.5776 20.904 20.5301 20.904 20.5301V20.5184C21.154 20.1866 21.7167 19.4345 22.5526 18.1849C23.6308 16.574 24.67 14.5604 24.67 14.5604C24.67 14.5604 24.7638 15.0519 25.084 15.8692C25.2717 16.3489 25.6621 16.876 25.9747 17.3853C25.7247 17.6519 25.5684 17.7999 25.5684 17.7999L25.5763 17.8059C25.373 18.0072 25.1544 18.2263 24.9121 18.4396C24.0604 19.2094 23.0449 20.092 22.9041 20.3466C22.7399 20.6486 22.7791 20.8678 23.0918 21.0455C23.3183 21.1758 23.7245 21.1935 24.1387 21.1758C24.9044 21.1343 25.4434 20.9921 25.709 20.9034C26.1232 20.7908 26.6076 20.619 27.0606 20.3643C27.8967 19.8964 28.4044 19.2272 28.3577 18.3449C28.3342 17.8592 28.1233 17.3735 27.8654 16.9174C27.9436 16.8346 28.0139 16.7517 28.0921 16.6687C29.4124 15.2058 30.436 13.6008 30.436 13.6008C30.436 13.6008 30.5298 14.0923 30.85 14.9098C31.0064 15.3243 31.3267 15.7745 31.6079 16.2126C30.3656 16.9767 29.5999 17.865 29.3265 18.4455C28.8344 19.5234 29.2171 20.009 29.9437 20.1215C30.2718 20.1748 30.7406 20.0563 31.0844 19.9438C31.5219 19.8372 32.0377 19.6537 32.5299 19.3812C33.366 18.9134 34.1706 18.2618 34.1237 17.3795C34.1002 16.9767 33.9597 16.5798 33.7643 16.1949C34.819 15.8634 36.1786 15.6797 37.9129 15.8336C41.6321 16.1653 42.3665 17.9242 42.2258 18.6647C42.0852 19.4049 41.3039 19.8077 41.0462 19.932C40.7882 20.0565 40.7024 20.0979 40.7258 20.1866C40.757 20.317 40.882 20.3111 41.1008 20.2874C41.4056 20.246 43.0542 19.6892 43.1244 18.327C43.2416 16.5858 41.0539 14.6847 37.1864 14.7025V14.7025ZM8.49686 22.0345C7.26232 23.0531 5.54355 23.4381 4.80129 23.1124C4.0044 22.7629 4.31689 21.2586 5.83258 20.1808C6.75446 19.5234 7.94209 18.9132 8.73126 18.5402C8.91088 18.4573 9.17662 18.3389 9.49698 18.1908C9.55161 18.1671 9.58294 18.1553 9.58294 18.1553L9.77043 18.0663C10.325 19.6062 9.79389 20.9626 8.49686 22.0345V22.0345ZM17.4819 17.4031C17.0522 18.1968 16.1537 20.2282 15.6068 20.1157C15.138 20.0209 14.8488 18.481 15.513 16.959C15.8489 16.1949 16.5599 15.2828 16.9741 14.9276C17.646 14.3589 18.3882 14.1693 18.5678 14.4005C18.7945 14.7025 17.7475 16.9056 17.4819 17.4031V17.4031ZM24.8965 20.0919C24.7167 20.163 24.545 20.2104 24.4667 20.1748C24.4121 20.1511 24.545 20.0563 24.545 20.0563C24.545 20.0563 25.4747 19.2983 25.8419 18.9548C26.053 18.7535 26.3028 18.5166 26.5685 18.25V18.327C26.5685 19.2332 25.4121 19.8432 24.8963 20.0919H24.8965ZM30.6156 19.1029C30.4828 19.0318 30.5062 18.7949 30.9516 18.0545C31.1235 17.7643 31.5296 17.2788 32.2252 16.8109C32.3032 17.0004 32.358 17.184 32.3501 17.3557C32.3423 18.4988 31.2642 18.9252 30.6156 19.1029Z" fill="#CD6799"/>
</svg>
