<svg width="28" height="25" viewBox="0 0 28 25" fill="none" xmlns="http://www.w3.org/2000/svg">
<path fill-rule="evenodd" clip-rule="evenodd" d="M13.933 0.200684C6.24015 0.200684 0.00927734 5.81791 0.00927734 12.7531C0.00927734 18.3076 3.99495 22.9991 9.52963 24.6623C10.2258 24.7721 10.4869 24.3955 10.4869 24.066C10.4869 23.7679 10.4695 22.7794 10.4695 21.7281C6.97115 22.3087 6.0661 20.9593 5.78763 20.2532C5.63099 19.8923 4.9522 18.7783 4.36044 18.4802C3.87311 18.2448 3.17693 17.6643 4.34304 17.6486C5.43953 17.6329 6.22274 18.5587 6.48381 18.9352C7.73695 20.8338 9.73849 20.3003 10.5391 19.9708C10.6609 19.1549 11.0264 18.6057 11.4267 18.2919C8.32871 17.9781 5.09144 16.8955 5.09144 12.0941C5.09144 10.7291 5.63099 9.59934 6.51862 8.72066C6.37939 8.40685 5.89206 7.12023 6.65786 5.39426C6.65786 5.39426 7.82397 5.06476 10.4869 6.68089C11.6008 6.39846 12.7843 6.25724 13.9678 6.25724C15.1513 6.25724 16.3349 6.39846 17.4488 6.68089C20.1117 5.04907 21.2778 5.39426 21.2778 5.39426C22.0436 7.12023 21.5563 8.40685 21.417 8.72066C22.3047 9.59934 22.8442 10.7134 22.8442 12.0941C22.8442 16.9111 19.5895 17.9781 16.4915 18.2919C16.9962 18.6842 17.4314 19.4373 17.4314 20.6141C17.4314 22.293 17.4139 23.6424 17.4139 24.066C17.4139 24.3955 17.675 24.7878 18.3712 24.6623C21.1353 23.821 23.5371 22.2195 25.2387 20.0831C26.9403 17.9468 27.8559 15.3832 27.8567 12.7531C27.8567 5.81791 21.6259 0.200684 13.933 0.200684Z" fill="black"/>
</svg>
