<svg width="29" height="25" viewBox="0 0 29 25" fill="none" xmlns="http://www.w3.org/2000/svg">
<path fill-rule="evenodd" clip-rule="evenodd" d="M14.808 0.0317383C7.11515 0.0317383 0.884277 5.64896 0.884277 12.5842C0.884277 18.1387 4.86995 22.8301 10.4046 24.4933C11.1008 24.6032 11.3619 24.2266 11.3619 23.8971C11.3619 23.599 11.3445 22.6105 11.3445 21.5592C7.84615 22.1398 6.9411 20.7904 6.66263 20.0843C6.50599 19.7234 5.8272 18.6094 5.23544 18.3113C4.74811 18.0759 4.05193 17.4953 5.21804 17.4797C6.31453 17.464 7.09774 18.3897 7.35881 18.7663C8.61195 20.6648 10.6135 20.1314 11.4141 19.8019C11.5359 18.9859 11.9014 18.4368 12.3017 18.123C9.20371 17.8092 5.96644 16.7265 5.96644 11.9252C5.96644 10.5601 6.50599 9.43039 7.39362 8.55172C7.25439 8.23791 6.76706 6.95128 7.53286 5.22532C7.53286 5.22532 8.69897 4.89582 11.3619 6.51194C12.4758 6.22951 13.6593 6.0883 14.8428 6.0883C16.0263 6.0883 17.2099 6.22951 18.3238 6.51194C20.9867 4.88012 22.1528 5.22532 22.1528 5.22532C22.9186 6.95128 22.4313 8.23791 22.292 8.55172C23.1797 9.43039 23.7192 10.5444 23.7192 11.9252C23.7192 16.7422 20.4645 17.8092 17.3665 18.123C17.8712 18.5152 18.3064 19.2684 18.3064 20.4452C18.3064 22.1241 18.2889 23.4735 18.2889 23.8971C18.2889 24.2266 18.55 24.6189 19.2462 24.4933C22.0103 23.652 24.4121 22.0505 26.1137 19.9142C27.8153 17.7778 28.7309 15.2142 28.7317 12.5842C28.7317 5.64896 22.5009 0.0317383 14.808 0.0317383Z" fill="black"/>
</svg>
