<svg width="26" height="26" viewBox="0 0 26 26" fill="none" xmlns="http://www.w3.org/2000/svg">
<path fill-rule="evenodd" clip-rule="evenodd" d="M13.0611 0.980225C6.21659 0.980225 0.672852 6.52396 0.672852 13.3685C0.672852 18.8503 4.21898 23.4804 9.14331 25.1218C9.76272 25.2302 9.995 24.8586 9.995 24.5334C9.995 24.2391 9.97951 23.2636 9.97951 22.226C6.86697 22.799 6.06173 21.4673 5.81397 20.7704C5.6746 20.4143 5.07067 19.3148 4.54418 19.0206C4.11059 18.7883 3.49117 18.2154 4.52869 18.1999C5.50426 18.1844 6.2011 19.098 6.43338 19.4697C7.54832 21.3434 9.32913 20.8169 10.0415 20.4917C10.1499 19.6865 10.475 19.1445 10.8312 18.8348C8.07482 18.5251 5.19456 17.4566 5.19456 12.7181C5.19456 11.3709 5.6746 10.2559 6.46435 9.38874C6.34047 9.07903 5.90688 7.80924 6.58823 6.10586C6.58823 6.10586 7.62575 5.78067 9.995 7.37565C10.9861 7.09692 12.0391 6.95755 13.0921 6.95755C14.1451 6.95755 15.1981 7.09692 16.1891 7.37565C18.5584 5.76518 19.5959 6.10586 19.5959 6.10586C20.2772 7.80924 19.8436 9.07903 19.7198 9.38874C20.5095 10.2559 20.9896 11.3554 20.9896 12.7181C20.9896 17.4721 18.0938 18.5251 15.3374 18.8348C15.7865 19.2219 16.1736 19.9652 16.1736 21.1266C16.1736 22.7835 16.1581 24.1153 16.1581 24.5334C16.1581 24.8586 16.3904 25.2457 17.0098 25.1218C19.4691 24.2915 21.6061 22.7109 23.12 20.6025C24.6339 18.4941 25.4486 15.9641 25.4493 13.3685C25.4493 6.52396 19.9056 0.980225 13.0611 0.980225Z" fill="#666666"/>
</svg>
