<svg width="28" height="25" viewBox="0 0 28 25" fill="none" xmlns="http://www.w3.org/2000/svg">
<path fill-rule="evenodd" clip-rule="evenodd" d="M13.933 0.419189C6.24015 0.419189 0.00927734 6.03641 0.00927734 12.9716C0.00927734 18.5261 3.99495 23.2176 9.52963 24.8808C10.2258 24.9906 10.4869 24.614 10.4869 24.2845C10.4869 23.9864 10.4695 22.9979 10.4695 21.9467C6.97115 22.5272 6.0661 21.1778 5.78763 20.4717C5.63099 20.1109 4.9522 18.9968 4.36044 18.6987C3.87311 18.4633 3.17693 17.8828 4.34304 17.8671C5.43953 17.8514 6.22274 18.7772 6.48381 19.1537C7.73695 21.0523 9.73849 20.5188 10.5391 20.1893C10.6609 19.3734 11.0264 18.8242 11.4267 18.5104C8.32871 18.1966 5.09144 17.114 5.09144 12.3126C5.09144 10.9476 5.63099 9.81784 6.51862 8.93917C6.37939 8.62536 5.89206 7.33873 6.65786 5.61277C6.65786 5.61277 7.82397 5.28327 10.4869 6.8994C11.6008 6.61696 12.7843 6.47575 13.9678 6.47575C15.1513 6.47575 16.3349 6.61696 17.4488 6.8994C20.1117 5.26758 21.2778 5.61277 21.2778 5.61277C22.0436 7.33873 21.5563 8.62536 21.417 8.93917C22.3047 9.81784 22.8442 10.9319 22.8442 12.3126C22.8442 17.1296 19.5895 18.1966 16.4915 18.5104C16.9962 18.9027 17.4314 19.6558 17.4314 20.8326C17.4314 22.5115 17.4139 23.8609 17.4139 24.2845C17.4139 24.614 17.675 25.0063 18.3712 24.8808C21.1353 24.0395 23.5371 22.438 25.2387 20.3016C26.9403 18.1653 27.8559 15.6017 27.8567 12.9716C27.8567 6.03641 21.6259 0.419189 13.933 0.419189Z" fill="black"/>
</svg>
