<svg width="1409" height="102" viewBox="0 0 1409 102" fill="none" xmlns="http://www.w3.org/2000/svg">
<path fill-rule="evenodd" clip-rule="evenodd" d="M1408.5 25.5L1349.83 34C1291.17 42.5 1173.83 59.5 1056.5 57.375C939.167 55.25 821.833 34 704.5 34C587.167 34 469.833 55.25 352.5 70.125C235.167 85 117.833 93.5 59.1664 97.75L0.499888 102V5.10216e-06L59.1664 5.10216e-06C117.833 5.10216e-06 235.167 5.10216e-06 352.5 5.10216e-06C469.833 5.10216e-06 587.167 5.10216e-06 704.5 5.10216e-06C821.833 5.10216e-06 939.167 5.10216e-06 1056.5 5.10216e-06C1173.83 5.10216e-06 1291.17 5.10216e-06 1349.83 5.10216e-06L1408.5 5.10216e-06V25.5Z" fill="url(#paint0_linear_31_92)"/>
<defs>
<linearGradient id="paint0_linear_31_92" x1="1475.93" y1="50.9998" x2="0.499923" y2="50.9998" gradientUnits="userSpaceOnUse">
<stop offset="0.0260229" stop-color="#13B0F5"/>
<stop offset="1" stop-color="#E70FAA"/>
</linearGradient>
</defs>
</svg>
