<svg width="78" height="76" viewBox="0 0 78 76" fill="none" xmlns="http://www.w3.org/2000/svg">
<path d="M5.1333 5.27802H72.8633V70.3692H5.1333V5.27802Z" fill="#F5DE19"/>
<path d="M50.6311 56.1305C51.2082 57.2571 52.1048 58.2039 53.2175 58.862C54.3303 59.5201 55.6138 59.8626 56.9203 59.85C59.557 59.85 61.243 58.5831 61.243 56.8279C61.243 54.7357 59.511 53.9872 56.6083 52.7667L55.0166 52.1111C50.4207 50.2305 47.3728 47.8756 47.3728 42.8961C47.3728 38.3095 51.0012 34.8155 56.693 34.8155C58.5355 34.6876 60.3764 35.0839 61.986 35.955C63.5957 36.826 64.9029 38.1332 65.7446 39.7136L60.7688 42.7706C60.4448 41.9869 59.8805 41.3165 59.1508 40.8482C58.4212 40.3799 57.5606 40.1358 56.6833 40.1483C56.3005 40.1115 55.914 40.1517 55.5482 40.2664C55.1825 40.381 54.8457 40.5677 54.5592 40.8144C54.2727 41.0611 54.0428 41.3624 53.8842 41.6992C53.7255 42.036 53.6416 42.4009 53.6378 42.7706C53.6378 44.6047 54.8207 45.3486 57.5517 46.49L59.1433 47.1456C64.5521 49.375 67.6096 51.6462 67.6096 56.7535C67.6096 62.2607 63.108 65.2782 57.063 65.2782C54.7077 65.4224 52.3593 64.9085 50.3012 63.7984C48.2431 62.6884 46.5632 61.0297 45.4643 59.0224L50.6311 56.1305ZM28.1472 56.6605C29.1462 58.3645 30.0557 59.8058 32.2424 59.8058C34.3324 59.8058 35.6531 59.0201 35.6531 55.9631V35.1642H42.0173V56.0445C42.0173 62.3769 38.147 65.2596 32.5133 65.2596C30.522 65.3642 28.5442 64.8872 26.8402 63.8914C25.1361 62.8956 23.7855 61.4276 22.9658 59.6803L28.1472 56.6605Z" fill="black"/>
</svg>
