<svg width="96" height="64" viewBox="0 0 96 64" fill="none" xmlns="http://www.w3.org/2000/svg">
<path d="M27.4297 27.3438C30.2005 19.9551 37.1274 16.2607 48.2105 16.2607C64.8352 16.2607 66.9132 24.5731 75.2256 25.9584C80.7671 26.882 85.616 25.4967 89.7721 21.8023C87.0013 29.191 80.0744 32.8854 68.9913 32.8854C52.3667 32.8854 50.2886 24.5731 41.9763 23.1877C36.4347 22.2641 31.5859 23.6495 27.4297 27.3438ZM6.64893 43.9685C9.4197 36.5797 16.3466 32.8854 27.4297 32.8854C44.0544 32.8854 46.1324 41.1977 54.4448 42.5831C59.9863 43.5067 64.8352 42.1213 68.9913 38.4269C66.2205 45.8157 59.2936 49.51 48.2105 49.51C31.5859 49.51 29.5078 41.1977 21.1955 39.8123C15.6539 38.8887 10.8051 40.2741 6.64893 43.9685Z" fill="#44A8B3"/>
</svg>
