<svg width="150" height="125" viewBox="0 0 150 125" fill="none" xmlns="http://www.w3.org/2000/svg">
<path d="M27.9811 105.518L17.5186 7.86438H132.481L122.005 105.503L74.9301 116.364L27.9811 105.518Z" fill="#E44F26"/>
<path d="M75 108.064L113.042 99.2873L121.991 15.8508H75V108.064Z" fill="#F1662A"/>
<path d="M75 52.0665H55.9559L54.6429 39.8021H75V27.8245H38.9141L39.2586 31.0408L42.7927 64.0441H75V52.0665V52.0665ZM75 83.1711L74.9348 83.1866L58.908 79.5868L57.8836 70.0349H43.4353L45.4514 88.8364L74.9348 95.6486L75 95.6332V83.1711Z" fill="#EBEBEB"/>
<path d="M74.9487 52.0665V64.0441H92.6704L91.0035 79.579L74.9487 83.1828V95.6448L104.455 88.8364L104.67 86.8137L108.05 55.2828L108.404 52.0665H74.9487V52.0665ZM74.9487 27.8245V39.8021H109.712L110.001 37.1129L110.658 31.0408L111.002 27.8245H74.9487V27.8245Z" fill="white"/>
</svg>
