<svg width="42" height="37" viewBox="0 0 42 37" fill="none" xmlns="http://www.w3.org/2000/svg">
<path d="M7.77447 30.9284L4.85547 2.75684H36.9411L34.0182 30.924L20.8788 34.0574L7.77447 30.9284Z" fill="#1572B6"/>
<path d="M20.8984 31.6629L31.5165 29.1309L34.0144 5.06079H20.8984V31.6629Z" fill="#33A9DC"/>
<path d="M20.8984 15.267H26.214L26.5805 11.7289H20.8984V8.27356H30.9707L30.8745 9.20028L29.8881 18.7223H20.8984V15.267V15.267Z" fill="white"/>
<path d="M20.9231 24.2402L20.9049 24.2447L16.4315 23.205L16.1456 20.4495H12.1128L12.6755 25.8745L20.9036 27.8397L20.9231 27.8353V24.2402V24.2402Z" fill="#EBEBEB"/>
<path d="M25.8725 18.5759L25.3891 23.2028L20.9092 24.2424V27.8375L29.1437 25.8745L29.2048 25.2909L29.9027 18.5759H25.8725V18.5759Z" fill="white"/>
<path d="M20.9128 8.27356V11.7289H11.2096L11.129 10.952L10.9458 9.20028L10.8496 8.27356H20.9128V8.27356ZM20.8985 15.267V18.7223H16.481L16.4004 17.9454L16.2184 16.1937L16.1223 15.267H20.8985V15.267Z" fill="#EBEBEB"/>
</svg>
