<svg width="76" height="70" viewBox="0 0 76 70" fill="none" xmlns="http://www.w3.org/2000/svg">
<path d="M68.4078 11.2894L55.0037 5.31573C54.2467 4.97788 53.3949 4.86639 52.5665 4.99671C51.738 5.12704 50.9738 5.49272 50.3799 6.04307L6.50143 43.0731C5.96905 43.5202 5.65038 44.1448 5.6155 44.8095C5.58062 45.4742 5.8324 46.1244 6.31545 46.6173C6.37357 46.6754 6.43169 46.7313 6.49445 46.7829L10.0768 49.7956C10.5449 50.19 11.1474 50.4201 11.7798 50.4461C12.4121 50.472 13.0343 50.2921 13.5383 49.9376L66.39 12.8388C66.7892 12.5584 67.265 12.3867 67.7639 12.343C68.2628 12.2994 68.765 12.3855 69.2139 12.5917C69.6628 12.7979 70.0406 13.116 70.3048 13.5102C70.569 13.9043 70.709 14.359 70.7093 14.8228V14.6787C70.7092 13.9705 70.4932 13.2767 70.0861 12.6771C69.6789 12.0775 69.0972 11.5965 68.4078 11.2894V11.2894Z" fill="#0065A9"/>
<path d="M68.4078 58.5022L55.0037 64.478C54.2465 64.8149 53.395 64.9259 52.5667 64.7956C51.7385 64.6653 50.9743 64.3002 50.3799 63.7507L6.50143 26.7185C5.96905 26.2714 5.65038 25.6468 5.6155 24.9821C5.58062 24.3174 5.8324 23.6672 6.31545 23.1744C6.37357 23.1163 6.43169 23.0603 6.49445 23.0087L10.0768 19.996C10.5454 19.6 11.1493 19.3688 11.7832 19.3428C12.4171 19.3169 13.0407 19.4978 13.5452 19.854L66.39 56.9528C66.7892 57.2332 67.265 57.4049 67.7639 57.4486C68.2628 57.4922 68.765 57.4061 69.2139 57.1999C69.6628 56.9937 70.0406 56.6756 70.3048 56.2814C70.569 55.8872 70.709 55.4326 70.7093 54.9687V55.1237C70.7068 55.83 70.4896 56.5214 70.0826 57.1188C69.6756 57.7163 69.0952 58.1957 68.4078 58.5022V58.5022Z" fill="#007ACC"/>
<path d="M55.0037 64.478C54.2465 64.8149 53.395 64.9259 52.5667 64.7956C51.7385 64.6653 50.9744 64.3002 50.3799 63.7507C50.7137 64.0557 51.1374 64.2627 51.5978 64.3458C52.0582 64.4289 52.5348 64.3843 52.9679 64.2177C53.4011 64.0511 53.7715 63.7699 54.0327 63.4093C54.294 63.0487 54.4344 62.6248 54.4365 62.1906V7.60106C54.4369 7.16484 54.2974 6.73833 54.0357 6.37556C53.774 6.01279 53.4019 5.73007 52.9665 5.56323C52.5311 5.39639 52.052 5.35293 51.5898 5.43835C51.1277 5.52377 50.7034 5.73423 50.3706 6.04308C50.9646 5.49292 51.7286 5.12722 52.557 4.99653C53.3853 4.86584 54.2371 4.97663 54.9944 5.31358L68.3962 11.2787C69.0878 11.5842 69.6719 12.0646 70.0812 12.6643C70.4904 13.264 70.7082 13.9586 70.7093 14.6679V55.1237C70.7095 55.8325 70.4933 56.5269 70.0857 57.1269C69.6781 57.727 69.0957 58.2082 68.4055 58.5151L55.0037 64.478Z" fill="#1F9CF0"/>
</svg>
