<svg width="144" height="124" viewBox="0 0 144 124" fill="none" xmlns="http://www.w3.org/2000/svg">
<path d="M26.8747 105.168L16.8379 8.30188H127.162L117.112 105.153L71.9331 115.927L26.8747 105.168Z" fill="#1572B6"/>
<path d="M72 107.694L108.51 98.9875L117.099 16.2239H72V107.694Z" fill="#33A9DC"/>
<path d="M72 51.3173H90.2772L91.5374 39.1518H72V27.2708H106.633L106.302 30.4573L102.91 63.1983H72V51.3173V51.3173Z" fill="white"/>
<path d="M72.0847 82.1711L72.0221 82.1864L56.6407 78.6117L55.6575 69.1369H41.791L43.726 87.7906L72.0176 94.5479L72.0847 94.5326V82.1711V82.1711Z" fill="#EBEBEB"/>
<path d="M89.1018 62.6948L87.4394 78.6041L72.0356 82.1787V94.5402L100.35 87.7906L100.56 85.7842L102.959 62.6948H89.1018V62.6948Z" fill="white"/>
<path d="M72.0493 27.2708V39.1518H38.6856L38.4085 36.4804L37.7784 30.4573L37.4478 27.2708H72.0493V27.2708ZM72.0001 51.3173V63.1983H56.8108L56.5338 60.5269L55.9082 54.5038L55.5775 51.3173H72.0001V51.3173Z" fill="#EBEBEB"/>
</svg>
