<svg width="75" height="63" viewBox="0 0 75 63" fill="none" xmlns="http://www.w3.org/2000/svg">
<path d="M13.9019 53.6399L8.64307 4.55573H66.4274L61.1615 53.6322L37.5001 59.0916L13.9019 53.6399Z" fill="#E44F26"/>
<path d="M37.5347 54.9196L56.6557 50.508L61.1539 8.56995H37.5347V54.9196Z" fill="#F1662A"/>
<path d="M37.535 26.7732H27.9628L27.3028 20.6087H37.535V14.5883H19.397L19.5702 16.2049L21.3465 32.7936H37.535V26.7732V26.7732ZM37.535 42.4075L37.5023 42.4152L29.4466 40.6058L28.9317 35.8047H21.6695L22.6829 45.255L37.5023 48.6791L37.535 48.6713V42.4075Z" fill="#EBEBEB"/>
<path d="M37.5093 26.7732V32.7936H46.4168L45.579 40.6019L37.5093 42.4133V48.6771L52.3403 45.255L52.448 44.2383L54.1471 28.3898L54.325 26.7732H37.5093V26.7732ZM37.5093 14.5883V20.6087H54.9826L55.1278 19.257L55.4578 16.2049L55.6309 14.5883H37.5093V14.5883Z" fill="white"/>
</svg>
