<svg width="46" height="44" viewBox="0 0 46 44" fill="none" xmlns="http://www.w3.org/2000/svg">
<path d="M3.63086 3.57581H42.8201V41.2382H3.63086V3.57581Z" fill="#F5DE19"/>
<path d="M29.9566 32.9996C30.2905 33.6514 30.8093 34.1993 31.4532 34.5801C32.097 34.9608 32.8397 35.159 33.5956 35.1517C35.1212 35.1517 36.0968 34.4186 36.0968 33.4031C36.0968 32.1925 35.0946 31.7594 33.4151 31.0532L32.4941 30.6739C29.8349 29.5857 28.0714 28.2232 28.0714 25.342C28.0714 22.6881 30.1708 20.6665 33.4641 20.6665C34.5302 20.5925 35.5953 20.8218 36.5267 21.3258C37.4581 21.8298 38.2144 22.5862 38.7014 23.5006L35.8224 25.2694C35.6349 24.816 35.3084 24.4281 34.8862 24.1571C34.464 23.8861 33.9661 23.7449 33.4585 23.7521C33.237 23.7308 33.0133 23.7541 32.8017 23.8204C32.5901 23.8868 32.3952 23.9948 32.2295 24.1375C32.0637 24.2802 31.9307 24.4546 31.8389 24.6495C31.7471 24.8444 31.6986 25.0555 31.6964 25.2694C31.6964 26.3306 32.3808 26.7611 33.9609 27.4215L34.8819 27.8008C38.0114 29.0908 39.7805 30.4049 39.7805 33.3601C39.7805 36.5466 37.1759 38.2925 33.6782 38.2925C32.3154 38.3759 30.9566 38.0786 29.7658 37.4363C28.5749 36.794 27.6029 35.8343 26.9671 34.6729L29.9566 32.9996ZM16.9472 33.3063C17.5252 34.2922 18.0515 35.1262 19.3167 35.1262C20.526 35.1262 21.2902 34.6715 21.2902 32.9027V20.8682H24.9726V32.9498C24.9726 36.6138 22.7332 38.2817 19.4735 38.2817C18.3213 38.3423 17.1769 38.0663 16.191 37.4901C15.205 36.9139 14.4235 36.0645 13.9492 35.0535L16.9472 33.3063Z" fill="black"/>
</svg>
