<svg width="190" height="126" viewBox="0 0 190 126" fill="none" xmlns="http://www.w3.org/2000/svg">
<path d="M54.084 53.9438C59.5965 39.2438 73.3777 31.8938 95.4277 31.8938C128.503 31.8938 132.637 48.4313 149.175 51.1875C160.2 53.025 169.846 50.2688 178.115 42.9188C172.603 57.6188 158.821 64.9688 136.771 64.9688C103.696 64.9688 99.5621 48.4313 83.0246 45.675C71.9996 43.8375 62.3527 46.5938 54.084 53.9438ZM12.7402 87.0188C18.2527 72.3188 32.034 64.9688 54.084 64.9688C87.159 64.9688 91.2933 81.5063 107.831 84.2625C118.856 86.1 128.503 83.3438 136.771 75.9938C131.259 90.6938 117.478 98.0438 95.4277 98.0438C62.3527 98.0438 58.2184 81.5063 41.6809 78.75C30.6559 76.9125 21.009 79.6688 12.7402 87.0188Z" fill="#44A8B3"/>
</svg>
