<svg width="56" height="38" viewBox="0 0 56 38" fill="none" xmlns="http://www.w3.org/2000/svg">
<path d="M16.0367 16.2482C17.6399 11.973 21.6479 9.83545 28.0607 9.83545C37.6798 9.83545 38.8822 14.645 43.6918 15.4466C46.8982 15.981 49.7038 15.1794 52.1086 13.0418C50.5054 17.317 46.4974 19.4546 40.0846 19.4546C30.4654 19.4546 29.263 14.645 24.4535 13.8434C21.2471 13.309 18.4415 14.1106 16.0367 16.2482ZM4.0127 25.8674C5.61589 21.5922 9.62389 19.4546 16.0367 19.4546C25.6559 19.4546 26.8583 24.2642 31.6678 25.0658C34.8742 25.6002 37.6798 24.7986 40.0846 22.661C38.4814 26.9362 34.4734 29.0738 28.0607 29.0738C18.4415 29.0738 17.2391 24.2642 12.4295 23.4626C9.22309 22.9282 6.41749 23.7298 4.0127 25.8674Z" fill="#44A8B3"/>
</svg>
