<svg width="44" height="37" viewBox="0 0 44 37" fill="none" xmlns="http://www.w3.org/2000/svg">
<path d="M8.62437 31.0302L5.58154 2.62958H39.0161L35.9692 31.0257L22.2785 34.1846L8.62437 31.0302Z" fill="#E44F26"/>
<path d="M22.2988 31.7706L33.3624 29.218L35.9652 4.95221H22.2988V31.7706Z" fill="#F1662A"/>
<path d="M22.2991 15.4848H16.7605L16.3786 11.918H22.2991V8.43451H11.8042L11.9044 9.36989L12.9322 18.9682H22.2991V15.4848V15.4848ZM22.2991 24.5309L22.2801 24.5354L17.619 23.4885L17.3211 20.7105H13.1191L13.7055 26.1786L22.2801 28.1598L22.2991 28.1553V24.5309Z" fill="#EBEBEB"/>
<path d="M22.2842 15.4848V18.9682H27.4382L26.9534 23.4862L22.2842 24.5343V28.1586L30.8656 26.1786L30.9279 25.5903L31.911 16.4202L32.0139 15.4848H22.2842V15.4848ZM22.2842 8.43451V11.918H32.3944L32.4784 11.1358L32.6693 9.36989L32.7696 8.43451H22.2842V8.43451Z" fill="white"/>
</svg>
