<svg width="149" height="138" viewBox="0 0 149 138" fill="none" xmlns="http://www.w3.org/2000/svg">
<path d="M134.957 22.0347L108.289 10.1499C106.783 9.47773 105.089 9.25592 103.44 9.5152C101.792 9.77449 100.272 10.502 99.0902 11.597L11.7933 85.2687C10.7342 86.1584 10.1002 87.4011 10.0308 88.7234C9.96138 90.0458 10.4623 91.3395 11.4233 92.32C11.539 92.4355 11.6546 92.5469 11.7795 92.6496L18.9066 98.6434C19.8379 99.428 21.0367 99.8858 22.2947 99.9375C23.5527 99.9891 24.7906 99.6312 25.7932 98.9259L130.943 25.1172C131.737 24.5593 132.684 24.2177 133.676 24.1308C134.669 24.044 135.668 24.2153 136.561 24.6255C137.454 25.0358 138.206 25.6686 138.731 26.4529C139.257 27.2371 139.535 28.1416 139.536 29.0645V28.7776C139.536 27.3687 139.106 25.9884 138.296 24.7955C137.486 23.6026 136.329 22.6456 134.957 22.0347V22.0347Z" fill="#0065A9"/>
<path d="M134.957 115.965L108.289 127.854C106.783 128.525 105.089 128.745 103.441 128.486C101.793 128.227 100.273 127.501 99.0902 126.407L11.7933 52.7312C10.7342 51.8416 10.1002 50.5989 10.0308 49.2765C9.96138 47.9542 10.4623 46.6605 11.4233 45.68C11.539 45.5644 11.6546 45.4531 11.7795 45.3503L18.9066 39.3566C19.8388 38.5687 21.0404 38.1088 22.3015 38.0571C23.5626 38.0055 24.8033 38.3654 25.8071 39.074L130.943 112.883C131.737 113.441 132.684 113.782 133.676 113.869C134.669 113.956 135.668 113.785 136.561 113.374C137.454 112.964 138.206 112.331 138.731 111.547C139.257 110.763 139.535 109.858 139.536 108.935V109.244C139.531 110.649 139.099 112.024 138.289 113.213C137.479 114.402 136.325 115.355 134.957 115.965V115.965Z" fill="#007ACC"/>
<path d="M108.289 127.854C106.782 128.525 105.088 128.745 103.441 128.486C101.793 128.227 100.272 127.501 99.0898 126.407C99.754 127.014 100.597 127.426 101.513 127.591C102.429 127.756 103.377 127.668 104.239 127.336C105.1 127.005 105.837 126.445 106.357 125.728C106.877 125.011 107.156 124.167 107.16 123.303V14.6966C107.161 13.8287 106.884 12.9802 106.363 12.2584C105.842 11.5367 105.102 10.9742 104.236 10.6423C103.37 10.3104 102.416 10.2239 101.497 10.3938C100.578 10.5638 99.7334 10.9825 99.0713 11.597C100.253 10.5024 101.773 9.77484 103.421 9.51484C105.069 9.25483 106.764 9.47526 108.27 10.1456L134.934 22.0132C136.309 22.6212 137.472 23.5768 138.286 24.7699C139.1 25.9631 139.533 27.345 139.535 28.7562V109.244C139.536 110.654 139.106 112.035 138.295 113.229C137.484 114.423 136.325 115.38 134.952 115.991L108.289 127.854Z" fill="#1F9CF0"/>
</svg>
