<svg width="44" height="41" viewBox="0 0 44 41" fill="none" xmlns="http://www.w3.org/2000/svg">
<path d="M39.1354 7.22313L31.3796 3.7667C30.9416 3.57121 30.4488 3.5067 29.9694 3.58211C29.49 3.65752 29.0479 3.86911 28.7042 4.18755L3.31573 25.6135C3.00769 25.8722 2.8233 26.2336 2.80312 26.6182C2.78294 27.0028 2.92862 27.379 3.20812 27.6642C3.24175 27.6978 3.27537 27.7302 3.31169 27.76L5.38447 29.5032C5.65532 29.7314 6.00396 29.8646 6.36983 29.8796C6.73571 29.8946 7.0957 29.7905 7.3873 29.5854L37.9679 8.11962C38.1988 7.95737 38.4742 7.85802 38.7628 7.83276C39.0515 7.8075 39.3421 7.85733 39.6018 7.97664C39.8615 8.09595 40.0801 8.28 40.233 8.50808C40.3859 8.73616 40.4669 8.99921 40.467 9.26761V9.18419C40.467 8.77442 40.342 8.37299 40.1064 8.02606C39.8709 7.67914 39.5343 7.40083 39.1354 7.22313V7.22313Z" fill="#0065A9"/>
<path d="M39.1354 34.541L31.3796 37.9987C30.9415 38.1936 30.4488 38.2578 29.9696 38.1824C29.4903 38.107 29.0482 37.8958 28.7042 37.5778L3.31573 16.1507C3.00769 15.8919 2.8233 15.5305 2.80312 15.1459C2.78294 14.7614 2.92862 14.3851 3.20812 14.1C3.24175 14.0663 3.27537 14.034 3.31169 14.0041L5.38447 12.2609C5.65559 12.0318 6.00503 11.898 6.37181 11.883C6.73858 11.868 7.09941 11.9727 7.39134 12.1788L37.9679 33.6445C38.1988 33.8068 38.4742 33.9061 38.7628 33.9314C39.0515 33.9566 39.3421 33.9068 39.6018 33.7875C39.8615 33.6682 40.0801 33.4841 40.233 33.256C40.3859 33.028 40.4669 32.7649 40.467 32.4965V32.5862C40.4656 32.9948 40.3399 33.3949 40.1044 33.7406C39.869 34.0863 39.5331 34.3636 39.1354 34.541V34.541Z" fill="#007ACC"/>
<path d="M31.3795 37.9986C30.9414 38.1936 30.4487 38.2578 29.9694 38.1824C29.4902 38.107 29.0481 37.8957 28.7041 37.5778C28.8973 37.7542 29.1424 37.874 29.4088 37.9221C29.6752 37.9702 29.9509 37.9444 30.2016 37.848C30.4522 37.7516 30.6665 37.5889 30.8177 37.3802C30.9688 37.1716 31.0501 36.9263 31.0513 36.6751V5.08902C31.0515 4.83663 30.9708 4.58984 30.8194 4.37994C30.668 4.17004 30.4527 4.00645 30.2007 3.90992C29.9488 3.81338 29.6716 3.78823 29.4042 3.83766C29.1368 3.88709 28.8913 4.00886 28.6987 4.18756C29.0424 3.86924 29.4845 3.65763 29.9638 3.58202C30.4431 3.5064 30.9359 3.57051 31.3741 3.76547L39.1285 7.21692C39.5287 7.39373 39.8666 7.67166 40.1035 8.01865C40.3403 8.36564 40.4663 8.76754 40.4669 9.17798V32.5861C40.467 32.9962 40.3419 33.398 40.1061 33.7452C39.8703 34.0924 39.5333 34.3708 39.1339 34.5484L31.3795 37.9986Z" fill="#1F9CF0"/>
</svg>
