<svg width="155" height="149" viewBox="0 0 155 149" fill="none" xmlns="http://www.w3.org/2000/svg">
<path d="M10.125 9.36438H144.875V138.864H10.125V9.36438Z" fill="#F5DE19"/>
<path d="M100.643 110.536C101.791 112.777 103.575 114.661 105.789 115.971C108.003 117.28 110.556 117.961 113.156 117.936C118.401 117.936 121.756 115.416 121.756 111.924C121.756 107.761 118.31 106.272 112.535 103.844L109.368 102.54C100.224 98.798 94.1607 94.1129 94.1607 84.2061C94.1607 75.081 101.379 68.1296 112.703 68.1296C116.369 67.8752 120.031 68.6637 123.234 70.3966C126.436 72.1296 129.037 74.7303 130.712 77.8745L120.812 83.9564C120.168 82.3974 119.045 81.0636 117.593 80.1318C116.142 79.2001 114.429 78.7145 112.684 78.7394C111.922 78.6661 111.153 78.7461 110.426 78.9742C109.698 79.2024 109.028 79.5737 108.458 80.0645C107.888 80.5553 107.431 81.1548 107.115 81.8249C106.799 82.495 106.633 83.2209 106.625 83.9564C106.625 87.6055 108.978 89.0855 114.412 91.3564L117.578 92.6606C128.339 97.096 134.422 101.615 134.422 111.776C134.422 122.732 125.466 128.736 113.44 128.736C108.754 129.023 104.081 128 99.9868 125.792C95.8921 123.583 92.5499 120.283 90.3636 116.29L100.643 110.536ZM55.9109 111.591C57.8985 114.981 59.708 117.848 64.0585 117.848C68.2165 117.848 70.8441 116.285 70.8441 110.203V68.8234H83.5058V110.365C83.5058 122.964 75.8058 128.699 64.5975 128.699C60.6356 128.907 56.7009 127.958 53.3107 125.977C49.9204 123.996 47.2333 121.075 45.6025 117.599L55.9109 111.591Z" fill="black"/>
</svg>
