<svg width="73" height="63" viewBox="0 0 73 63" fill="none" xmlns="http://www.w3.org/2000/svg">
<path d="M13.957 53.464L8.91211 4.77563H64.365L59.3134 53.4563L36.6049 58.8717L13.957 53.464Z" fill="#1572B6"/>
<path d="M36.6382 54.7334L54.9892 50.3574L59.3063 8.75751H36.6382V54.7334Z" fill="#33A9DC"/>
<path d="M36.6382 26.3967H45.8249L46.4583 20.2819H36.6382V14.3101H54.0458L53.8796 15.9117L52.1748 32.3685H36.6382V26.3967V26.3967Z" fill="white"/>
<path d="M36.6812 41.9049L36.6498 41.9126L28.9185 40.1158L28.4244 35.3535H21.4546L22.4272 44.7295L36.6475 48.1259L36.6812 48.1182V41.9049V41.9049Z" fill="#EBEBEB"/>
<path d="M45.2348 32.1154L44.3992 40.112L36.6567 41.9087V48.1221L50.8883 44.7295L50.9939 43.721L52.2001 32.1154H45.2348V32.1154Z" fill="white"/>
<path d="M36.6629 14.3101V20.2819H19.8932L19.7539 18.9391L19.4372 15.9117L19.271 14.3101H36.6629V14.3101ZM36.6382 26.3967V32.3685H29.0036L28.8643 31.0257L28.5498 27.9983L28.3836 26.3967H36.6382V26.3967Z" fill="#EBEBEB"/>
</svg>
